{"glyphs":{"0":{"ha":777,"x_min":47,"x_max":729,"o":"m 729 497 q 710 289 729 383 q 650 127 690 194 q 544 23 609 60 q 389 -14 479 -14 q 229 23 294 -14 q 123 127 163 60 q 65 289 83 194 q 47 498 47 384 q 65 707 47 613 q 123 867 83 801 q 229 970 163 934 q 390 1006 295 1006 q 545 970 479 1006 q 650 867 610 934 q 710 707 691 801 q 729 497 729 612 m 262 497 q 268 320 262 398 q 288 188 273 241 q 326 105 301 134 q 389 77 350 77 q 452 105 427 77 q 490 188 476 134 q 509 320 504 241 q 514 497 514 398 q 509 674 514 596 q 490 806 504 753 q 452 887 477 859 q 390 916 428 916 q 327 887 351 916 q 288 806 302 859 q 268 674 273 753 q 262 497 262 596 z "},"1":{"ha":777,"x_min":58,"x_max":708,"o":"m 708 0 l 135 0 l 135 74 l 249 74 q 279 78 267 74 q 301 93 292 83 q 314 120 310 103 q 318 164 318 138 l 318 860 q 268 801 292 827 q 223 755 245 774 q 181 726 201 736 q 139 715 160 715 q 107 723 122 715 q 82 743 93 730 q 65 776 71 757 q 58 818 58 795 q 102 831 79 823 q 152 852 125 839 q 208 882 178 864 q 272 925 237 900 l 370 997 l 525 997 l 525 164 q 528 125 525 142 q 539 97 531 109 q 561 80 547 85 q 596 74 574 74 l 708 74 l 708 0 z "},"2":{"ha":777,"x_min":49,"x_max":713,"o":"m 677 775 q 670 712 677 743 q 647 649 663 682 q 603 580 630 616 q 536 500 576 544 q 442 404 496 457 q 319 285 389 350 l 180 153 l 504 153 q 577 177 547 153 q 619 249 607 202 l 631 292 l 713 292 l 705 0 l 49 0 l 49 143 l 254 353 q 360 471 319 418 q 425 572 401 524 q 458 668 449 621 q 468 768 468 715 q 439 884 468 847 q 359 921 410 921 q 260 860 289 921 q 232 681 232 799 q 160 688 193 681 q 104 712 127 696 q 67 755 81 728 q 54 818 54 781 q 74 890 54 856 q 131 949 93 924 q 227 990 169 975 q 359 1006 284 1006 q 496 990 437 1006 q 597 944 556 974 q 657 871 637 914 q 677 775 677 828 z "},"3":{"ha":777,"x_min":39,"x_max":713,"o":"m 338 -14 q 202 0 259 -14 q 110 37 146 14 q 56 90 73 60 q 39 153 39 120 q 48 199 39 179 q 74 234 58 220 q 112 254 90 248 q 157 261 133 261 q 169 184 157 217 q 204 128 182 151 q 258 95 227 106 q 328 83 290 83 q 392 93 361 83 q 447 125 423 102 q 485 189 471 149 q 498 288 498 229 q 485 361 498 328 q 444 418 471 394 q 376 456 416 442 q 283 469 336 469 l 197 469 l 197 555 l 289 555 q 367 570 334 555 q 422 612 400 585 q 454 677 444 639 q 465 760 465 715 q 436 878 465 835 q 350 921 407 921 q 290 903 313 921 q 253 854 266 884 q 235 785 240 823 q 231 705 231 746 q 97 736 144 705 q 50 829 50 766 q 70 898 50 866 q 127 955 89 930 q 224 992 166 979 q 357 1006 281 1006 q 490 991 430 1006 q 591 947 550 976 q 655 876 633 918 q 677 779 677 833 q 661 693 677 732 q 616 623 645 654 q 549 568 588 591 q 465 529 510 545 q 551 505 507 522 q 631 460 595 488 q 690 388 667 431 q 713 286 713 345 q 681 144 713 201 q 597 52 650 86 q 477 2 545 17 q 338 -14 409 -14 z "},"4":{"ha":777,"x_min":18,"x_max":750,"o":"m 750 258 l 606 258 l 606 174 q 615 121 606 141 q 640 92 625 102 q 675 77 654 81 q 720 74 696 74 l 737 74 l 737 0 l 250 0 l 250 74 l 289 74 q 334 77 313 74 q 370 92 355 81 q 394 121 385 102 q 403 174 403 141 l 403 258 l 18 258 l 18 343 l 412 991 l 606 991 l 606 350 l 750 350 l 750 258 m 403 350 l 403 593 q 405 724 403 654 q 412 860 407 795 q 391 815 406 844 q 359 757 376 787 q 326 700 342 726 q 302 660 311 673 l 115 350 l 403 350 z "},"5":{"ha":777,"x_min":56,"x_max":703,"o":"m 319 83 q 385 95 354 83 q 439 131 416 106 q 476 199 463 156 q 490 306 490 243 q 440 460 490 409 q 301 511 391 511 q 253 509 275 511 q 214 504 232 507 q 179 495 195 500 q 147 486 163 491 l 83 511 l 127 991 l 653 991 l 660 739 l 581 739 l 570 786 q 562 808 566 798 q 551 825 558 818 q 533 835 545 831 q 505 839 522 839 l 216 839 q 216 836 216 838 q 216 827 216 833 q 214 814 215 822 q 213 798 214 806 q 211 778 212 789 q 210 756 210 768 q 208 733 209 745 q 205 709 206 721 l 195 582 q 223 590 205 586 q 260 597 240 594 q 303 601 281 600 q 347 603 326 603 q 493 584 428 603 q 606 529 559 566 q 677 436 652 492 q 703 306 703 380 q 670 154 703 216 q 585 56 637 92 q 468 3 532 19 q 340 -14 404 -14 q 209 1 263 -14 q 120 38 154 15 q 71 91 86 61 q 56 154 56 121 q 86 227 56 203 q 167 250 116 250 q 175 191 167 220 q 201 137 182 161 q 248 98 218 113 q 319 83 277 83 z "},"6":{"ha":777,"x_min":62,"x_max":728,"o":"m 446 924 q 372 899 405 924 q 315 828 339 875 q 277 713 291 781 q 258 557 262 644 q 291 575 273 566 q 333 592 310 585 q 386 604 356 600 q 450 608 416 608 q 565 589 513 608 q 652 532 616 569 q 708 442 688 496 q 728 321 728 388 q 707 185 728 246 q 647 79 687 123 q 546 11 606 35 q 407 -14 486 -14 q 267 15 330 -14 q 158 101 203 43 q 88 249 113 159 q 62 458 62 338 q 87 673 62 572 q 160 846 111 773 q 284 963 209 920 q 458 1006 359 1006 q 572 993 526 1006 q 648 959 619 980 q 691 910 677 938 q 704 852 704 882 q 695 812 704 831 q 667 777 686 792 q 615 753 647 762 q 538 745 584 745 q 534 808 538 776 q 519 865 530 840 q 491 907 509 891 q 446 924 473 924 m 399 524 q 359 518 380 524 q 319 503 338 512 q 283 481 300 493 q 258 457 267 469 q 271 286 259 358 q 304 168 283 214 q 352 100 324 121 q 411 78 379 78 q 459 92 438 78 q 496 133 480 106 q 518 204 511 160 q 526 307 526 248 q 492 471 526 419 q 399 524 458 524 z "},"7":{"ha":777,"x_min":61,"x_max":730,"o":"m 347 0 l 229 0 l 599 840 l 233 840 q 176 822 195 840 q 153 770 157 804 l 144 700 l 61 700 l 68 991 l 730 991 l 730 924 l 347 0 z "},"8":{"ha":777,"x_min":41,"x_max":734,"o":"m 41 253 q 56 334 41 298 q 98 399 71 370 q 163 453 125 429 q 245 501 201 478 q 118 611 163 549 q 74 753 74 672 q 91 847 74 801 q 145 928 107 893 q 245 984 183 962 q 396 1006 307 1006 q 525 987 469 1006 q 617 937 581 969 q 673 860 654 904 q 692 762 692 815 q 679 689 692 722 q 641 631 665 657 q 582 583 616 605 q 504 538 547 560 q 611 476 566 507 q 682 412 655 446 q 722 342 709 379 q 734 262 734 304 q 710 145 734 197 q 641 59 686 94 q 529 5 595 24 q 379 -14 463 -14 q 229 7 292 -14 q 123 64 165 28 q 62 149 82 100 q 41 253 41 198 m 517 765 q 508 824 517 795 q 484 875 500 852 q 443 911 467 897 q 387 925 419 925 q 337 913 359 925 q 300 881 315 901 q 277 831 285 860 q 269 770 269 803 q 279 707 269 734 q 308 658 289 680 q 355 619 327 636 q 419 585 382 602 q 463 616 445 600 q 494 655 481 633 q 511 704 505 677 q 517 765 517 730 m 386 65 q 451 78 422 65 q 500 114 479 91 q 531 169 520 137 q 542 239 542 201 q 530 300 542 273 q 494 352 519 328 q 431 398 469 376 q 339 446 392 421 q 296 411 316 431 q 261 368 275 392 q 238 314 246 344 q 229 248 229 284 q 240 173 229 207 q 273 116 252 140 q 322 78 293 92 q 386 65 351 65 z "},"9":{"ha":777,"x_min":49,"x_max":714,"o":"m 380 482 q 467 508 431 482 q 524 575 503 533 q 512 728 523 664 q 481 833 500 792 q 435 893 463 873 q 375 913 408 913 q 283 854 316 913 q 250 677 250 795 q 283 532 250 582 q 380 482 315 482 m 315 -14 q 209 0 252 -14 q 138 35 165 13 q 99 85 111 57 q 87 143 87 113 q 104 194 87 174 q 155 222 121 215 q 180 164 165 191 q 214 117 194 137 q 261 85 234 97 q 322 74 288 74 q 405 99 369 74 q 467 175 441 125 q 506 301 492 225 q 524 476 520 376 q 487 439 507 456 q 442 409 467 422 q 387 389 417 396 q 321 382 357 382 q 212 400 262 382 q 125 456 161 419 q 69 546 89 492 q 49 669 49 600 q 71 806 49 744 q 134 913 93 868 q 233 981 174 957 q 367 1006 292 1006 q 506 979 441 1006 q 616 895 570 951 q 688 749 663 838 q 714 539 714 661 q 692 324 714 425 q 622 149 669 223 q 498 30 574 74 q 315 -14 422 -14 z "},"\u0000":{"ha":407,"x_min":0,"x_max":0,"o":""},"\r":{"ha":407,"x_min":0,"x_max":0,"o":""}," ":{"ha":407,"x_min":0,"x_max":0,"o":""},"◌":{"ha":1223,"x_min":136,"x_max":1087,"o":"m 547 860 q 566 905 547 887 q 610 923 584 923 q 656 905 637 923 q 674 860 674 887 q 656 817 674 835 q 610 798 637 798 q 566 817 584 798 q 547 860 547 835 m 753 806 q 772 851 753 832 q 817 869 790 869 q 862 851 844 869 q 880 806 880 832 q 862 760 880 779 q 817 742 844 742 q 771 760 789 742 q 753 806 753 779 m 342 806 q 360 851 342 832 q 405 869 378 869 q 450 851 432 869 q 469 806 469 832 q 450 760 469 779 q 405 742 432 742 q 360 761 378 742 q 342 806 342 779 m 905 655 q 924 700 905 682 q 968 718 942 718 q 1014 700 996 718 q 1032 655 1032 682 q 1014 610 1032 628 q 968 591 996 591 q 924 610 942 591 q 905 655 905 628 m 191 655 q 210 700 191 682 q 254 718 228 718 q 300 700 281 718 q 318 655 318 682 q 300 610 318 628 q 254 591 281 591 q 209 609 227 591 q 191 655 191 627 m 960 448 q 978 494 960 475 q 1023 512 996 512 q 1068 494 1050 512 q 1087 448 1087 475 q 1068 404 1087 422 q 1023 385 1050 385 q 978 403 996 385 q 960 448 960 421 m 136 448 q 154 494 136 475 q 199 512 172 512 q 244 494 226 512 q 263 448 263 475 q 244 404 263 422 q 199 385 226 385 q 154 403 172 385 q 136 448 136 421 m 905 242 q 924 287 905 269 q 968 306 942 306 q 1014 287 996 306 q 1032 242 1032 269 q 1014 197 1032 215 q 968 178 996 178 q 924 197 942 178 q 905 242 905 216 m 191 242 q 210 287 191 269 q 254 306 228 306 q 300 287 281 306 q 318 242 318 269 q 300 197 318 215 q 254 178 281 178 q 209 197 227 178 q 191 242 191 215 m 753 92 q 772 138 753 119 q 817 156 790 156 q 862 138 844 156 q 880 92 880 119 q 862 47 880 66 q 817 28 844 28 q 772 47 790 28 q 753 92 753 66 m 342 92 q 360 138 342 119 q 405 156 378 156 q 450 138 432 156 q 469 92 469 119 q 450 47 469 66 q 405 28 432 28 q 361 47 380 28 q 342 92 342 67 m 547 35 q 566 81 547 62 q 610 99 584 99 q 656 81 637 99 q 674 35 674 62 q 656 -9 674 9 q 610 -28 637 -28 q 566 -9 584 -28 q 547 35 547 9 z "},"‌":{"ha":0,"x_min":0,"x_max":86,"o":"m 0 -334 l 0 1394 l 86 1394 l 86 -334 l 0 -334 z "},"﻿":{"ha":0,"x_min":0,"x_max":282,"o":"m 282 1325 l 86 1325 l 86 -334 l 0 -334 l 0 1394 l 282 1394 l 282 1325 z "},".":{"ha":422,"x_min":97,"x_max":325,"o":"m 97 100 q 106 153 97 132 q 130 187 115 174 q 166 205 145 200 q 211 211 187 211 q 255 205 234 211 q 291 187 275 200 q 316 153 307 174 q 325 100 325 132 q 316 47 325 68 q 291 14 307 26 q 255 -5 275 1 q 211 -11 234 -11 q 166 -5 187 -11 q 130 14 145 1 q 106 47 115 26 q 97 100 97 68 z "},",":{"ha":408,"x_min":62,"x_max":311,"o":"m 311 58 q 298 -27 311 14 q 254 -104 284 -69 q 177 -167 224 -138 q 62 -214 130 -195 l 62 -142 q 116 -120 93 -131 q 154 -96 139 -109 q 177 -69 169 -84 q 184 -33 184 -54 q 177 -12 184 -20 q 159 4 170 -3 q 147 12 153 7 q 134 20 141 16 q 110 39 121 27 q 91 70 98 52 q 85 90 87 79 q 83 115 83 102 q 112 186 83 162 q 183 211 140 211 q 277 170 242 211 q 311 58 311 129 z "},":":{"ha":422,"x_min":97,"x_max":325,"o":"m 97 646 q 106 699 97 677 q 130 733 115 720 q 166 751 145 746 q 211 757 187 757 q 255 751 234 757 q 291 733 275 746 q 316 699 307 720 q 325 646 325 677 q 316 593 325 614 q 291 559 307 572 q 255 540 275 546 q 211 534 234 534 q 166 540 187 534 q 130 559 145 546 q 106 593 115 572 q 97 646 97 614 m 97 100 q 106 153 97 132 q 130 187 115 174 q 166 205 145 200 q 211 211 187 211 q 255 205 234 211 q 291 187 275 200 q 316 153 307 174 q 325 100 325 132 q 316 47 325 68 q 291 14 307 26 q 255 -5 275 1 q 211 -11 234 -11 q 166 -5 187 -11 q 130 14 145 1 q 106 47 115 26 q 97 100 97 68 z "},";":{"ha":408,"x_min":62,"x_max":325,"o":"m 97 646 q 106 699 97 677 q 130 733 115 720 q 166 751 145 746 q 211 757 187 757 q 255 751 234 757 q 291 733 275 746 q 316 699 307 720 q 325 646 325 677 q 316 593 325 614 q 291 559 307 572 q 255 540 275 546 q 211 534 234 534 q 166 540 187 534 q 130 559 145 546 q 106 593 115 572 q 97 646 97 614 m 311 58 q 298 -27 311 14 q 254 -104 284 -69 q 177 -167 224 -138 q 62 -214 130 -195 l 62 -142 q 116 -120 93 -131 q 154 -96 139 -109 q 177 -69 169 -84 q 184 -33 184 -54 q 177 -12 184 -20 q 159 4 170 -3 q 147 12 153 7 q 134 20 141 16 q 110 39 121 27 q 91 70 98 52 q 85 90 87 79 q 83 115 83 102 q 112 186 83 162 q 183 211 140 211 q 277 170 242 211 q 311 58 311 129 z "},"…":{"ha":1100,"x_min":97,"x_max":1003,"o":"m 775 100 q 784 153 775 132 q 808 187 793 174 q 844 205 823 200 q 889 211 865 211 q 933 205 912 211 q 969 187 954 200 q 994 153 985 174 q 1003 100 1003 132 q 994 47 1003 68 q 969 14 985 26 q 933 -5 954 1 q 889 -11 912 -11 q 844 -5 865 -11 q 808 14 823 1 q 784 47 793 26 q 775 100 775 68 m 436 100 q 445 153 436 132 q 469 187 454 174 q 505 205 484 200 q 550 211 526 211 q 594 205 573 211 q 630 187 614 200 q 655 153 646 174 q 664 100 664 132 q 655 47 664 68 q 630 14 646 26 q 594 -5 614 1 q 550 -11 573 -11 q 505 -5 526 -11 q 469 14 484 1 q 445 47 454 26 q 436 100 436 68 m 97 100 q 106 153 97 132 q 130 187 115 174 q 166 205 145 200 q 211 211 187 211 q 255 205 234 211 q 291 187 275 200 q 316 153 307 174 q 325 100 325 132 q 316 47 325 68 q 291 14 307 26 q 255 -5 275 1 q 211 -11 234 -11 q 166 -5 187 -11 q 130 14 145 1 q 106 47 115 26 q 97 100 97 68 z "},"!":{"ha":530,"x_min":144,"x_max":386,"o":"m 227 317 l 144 991 l 386 991 l 304 317 l 227 317 m 153 100 q 162 153 153 132 q 186 187 171 174 q 222 205 201 200 q 267 211 243 211 q 310 205 290 211 q 347 187 331 200 q 371 153 362 174 q 380 100 380 132 q 371 47 380 68 q 347 14 362 26 q 310 -5 331 1 q 267 -11 290 -11 q 222 -5 243 -11 q 186 14 201 1 q 162 47 171 26 q 153 100 153 68 z "},"?":{"ha":764,"x_min":52,"x_max":688,"o":"m 688 750 q 670 651 688 695 q 618 570 653 606 q 532 502 584 533 q 411 443 479 471 l 383 317 l 298 317 l 271 488 q 368 544 330 511 q 429 613 406 576 q 458 691 450 650 q 467 772 467 732 q 460 833 467 806 q 441 881 454 861 q 408 911 429 901 q 358 922 387 922 q 306 908 327 922 q 272 870 285 894 q 253 814 259 846 q 248 747 248 782 q 169 753 205 747 q 107 772 133 760 q 66 802 81 783 q 52 844 52 820 q 69 908 52 878 q 123 959 87 937 q 215 993 159 981 q 347 1006 271 1006 q 483 988 420 1006 q 591 939 546 971 q 662 858 635 905 q 688 750 688 810 m 225 100 q 234 153 225 132 q 258 187 243 174 q 294 205 273 200 q 339 211 315 211 q 383 205 362 211 q 419 187 404 200 q 444 153 435 174 q 453 100 453 132 q 444 47 453 68 q 419 14 435 26 q 383 -5 404 1 q 339 -11 362 -11 q 294 -5 315 -11 q 258 14 273 1 q 234 47 243 26 q 225 100 225 68 z "},"'":{"ha":403,"x_min":93,"x_max":310,"o":"m 155 610 l 93 991 l 310 991 l 248 610 l 155 610 z "},"\"":{"ha":705,"x_min":93,"x_max":612,"o":"m 155 610 l 93 991 l 310 991 l 248 610 l 155 610 m 472 610 l 396 991 l 612 991 l 564 610 l 472 610 z "},"‛":{"ha":389,"x_min":78,"x_max":326,"o":"m 78 720 q 92 805 78 764 q 135 882 106 847 q 212 945 164 916 q 326 991 259 973 l 326 920 q 273 898 296 909 q 235 875 250 887 q 212 847 220 862 q 204 811 204 831 q 212 789 204 798 q 231 774 219 781 q 242 766 236 770 q 255 759 248 762 q 279 739 268 751 q 298 709 291 727 q 304 688 302 700 q 306 663 306 676 q 277 591 306 616 q 205 567 248 567 q 112 608 146 567 q 78 720 78 649 z "},"’":{"ha":389,"x_min":62,"x_max":311,"o":"m 311 839 q 298 753 311 795 q 254 677 284 711 q 177 614 224 642 q 62 567 130 585 l 62 639 q 116 661 93 650 q 154 684 139 671 q 177 712 169 696 q 184 747 184 727 q 177 769 184 761 q 159 785 170 777 l 134 800 q 110 820 121 808 q 91 850 98 832 q 85 871 87 859 q 83 896 83 882 q 112 967 83 943 q 183 991 140 991 q 277 950 242 991 q 311 839 311 909 z "},"“":{"ha":679,"x_min":78,"x_max":616,"o":"m 368 720 q 382 805 368 764 q 425 882 396 847 q 502 945 454 916 q 616 991 549 973 l 616 920 q 564 898 587 909 q 526 875 541 887 q 503 847 511 862 q 494 811 494 831 q 502 789 494 798 q 521 774 509 781 q 532 766 526 770 q 545 759 538 762 q 570 739 558 751 q 589 709 581 727 q 594 688 592 700 q 596 663 596 676 q 567 591 596 616 q 496 567 538 567 q 402 608 437 567 q 368 720 368 649 m 78 720 q 92 805 78 764 q 135 882 106 847 q 212 945 164 916 q 326 991 259 973 l 326 920 q 273 898 296 909 q 235 875 250 887 q 212 847 220 862 q 204 811 204 831 q 212 789 204 798 q 231 774 219 781 q 242 766 236 770 q 255 759 248 762 q 279 739 268 751 q 298 709 291 727 q 304 688 302 700 q 306 663 306 676 q 277 591 306 616 q 205 567 248 567 q 112 608 146 567 q 78 720 78 649 z "},"”":{"ha":679,"x_min":62,"x_max":602,"o":"m 602 839 q 588 753 602 795 q 545 677 574 711 q 467 614 515 642 q 353 567 420 585 l 353 639 q 406 661 383 650 q 444 684 429 671 q 467 712 459 696 q 475 747 475 727 q 467 769 475 761 q 449 785 460 777 l 425 800 q 400 820 412 808 q 381 850 389 832 q 376 871 378 859 q 374 896 374 882 q 402 967 374 943 q 473 991 431 991 q 567 950 532 991 q 602 839 602 909 m 311 839 q 298 753 311 795 q 254 677 284 711 q 177 614 224 642 q 62 567 130 585 l 62 639 q 116 661 93 650 q 154 684 139 671 q 177 712 169 696 q 184 747 184 727 q 177 769 184 761 q 159 785 170 777 l 134 800 q 110 820 121 808 q 91 850 98 832 q 85 871 87 859 q 83 896 83 882 q 112 967 83 943 q 183 991 140 991 q 277 950 242 991 q 311 839 311 909 z "},"(":{"ha":555,"x_min":79,"x_max":511,"o":"m 302 441 q 311 279 302 359 q 342 129 319 199 q 406 -2 366 58 q 511 -104 447 -62 l 511 -193 q 314 -83 396 -146 q 180 58 231 -20 q 104 233 128 137 q 79 441 79 330 q 104 648 79 553 q 180 823 128 744 q 314 964 231 901 q 511 1072 396 1026 l 511 985 q 406 883 447 942 q 342 753 366 823 q 311 603 319 682 q 302 441 302 524 z "},")":{"ha":555,"x_min":45,"x_max":476,"o":"m 253 441 q 244 603 253 524 q 214 753 236 682 q 150 883 191 823 q 45 985 109 942 l 45 1072 q 243 964 160 1026 q 377 823 326 901 q 452 648 429 744 q 476 441 476 553 q 452 233 476 330 q 377 58 429 137 q 243 -83 326 -20 q 45 -193 160 -146 l 45 -104 q 150 -2 109 -62 q 214 129 191 58 q 244 279 236 199 q 253 441 253 359 z "},"[":{"ha":575,"x_min":139,"x_max":524,"o":"m 524 -178 l 139 -178 l 139 1055 l 524 1055 l 524 982 l 464 982 q 420 979 441 982 q 384 965 399 975 q 359 935 369 954 q 350 882 350 915 l 350 -4 q 359 -57 350 -37 q 384 -87 369 -77 q 420 -101 399 -98 q 464 -104 441 -104 l 524 -104 l 524 -178 z "},"]":{"ha":575,"x_min":52,"x_max":436,"o":"m 52 1055 l 436 1055 l 436 -178 l 52 -178 l 52 -104 l 111 -104 q 156 -101 135 -104 q 192 -87 177 -98 q 216 -57 207 -77 q 225 -4 225 -37 l 225 882 q 216 935 225 915 q 192 965 207 954 q 156 979 177 975 q 111 982 135 982 l 52 982 l 52 1055 z "},"{":{"ha":614,"x_min":41,"x_max":572,"o":"m 572 -174 l 440 -174 q 337 -159 382 -174 q 263 -118 293 -145 q 218 -53 233 -92 q 203 32 203 -15 l 203 269 q 190 334 203 309 q 156 373 178 359 q 105 393 134 387 q 41 400 75 399 l 41 485 q 105 492 75 486 q 156 511 134 497 q 190 550 178 526 q 203 614 203 575 l 203 852 q 263 1002 203 949 q 440 1055 323 1055 l 572 1055 l 572 982 l 518 982 q 469 973 488 982 q 439 947 450 964 q 424 905 429 930 q 419 847 419 880 l 419 611 q 383 508 419 548 q 267 449 347 467 l 267 437 q 382 377 346 418 q 419 273 419 336 l 419 36 q 424 -22 419 3 q 439 -64 429 -47 q 469 -91 450 -81 q 518 -100 488 -100 l 572 -100 l 572 -174 z "},"}":{"ha":614,"x_min":41,"x_max":572,"o":"m 174 -174 l 41 -174 l 41 -100 l 96 -100 q 145 -91 125 -100 q 175 -64 164 -81 q 190 -22 186 -47 q 195 36 195 3 l 195 273 q 231 377 195 336 q 347 437 268 418 l 347 449 q 231 508 267 467 q 195 611 195 548 l 195 847 q 190 905 195 880 q 175 947 186 930 q 145 973 164 964 q 96 982 125 982 l 41 982 l 41 1055 l 174 1055 q 351 1002 290 1055 q 411 852 411 949 l 411 614 q 424 550 411 575 q 458 511 436 526 q 509 492 479 497 q 572 485 538 486 l 572 400 q 509 393 538 399 q 458 373 479 387 q 424 334 436 359 q 411 269 411 309 l 411 32 q 396 -53 411 -15 q 351 -118 380 -92 q 276 -159 321 -145 q 174 -174 232 -174 z "},"<":{"ha":777,"x_min":90,"x_max":686,"o":"m 686 144 l 90 468 l 90 525 l 686 850 l 686 741 l 239 496 l 686 254 l 686 144 z "},">":{"ha":777,"x_min":90,"x_max":686,"o":"m 686 468 l 90 144 l 90 254 l 538 496 l 90 741 l 90 850 l 686 525 l 686 468 z "},"ł":{"ha":400,"x_min":0,"x_max":400,"o":"m 400 1055 l 100 -170 l 0 -168 l 302 1055 l 400 1055 z "},"\\":{"ha":400,"x_min":0,"x_max":400,"o":"m 300 -168 l 0 1055 l 98 1055 l 400 -168 l 300 -168 z "},"|":{"ha":777,"x_min":338,"x_max":437,"o":"m 437 1055 l 437 -334 l 338 -334 l 338 1055 l 437 1055 z "},"@":{"ha":1279,"x_min":71,"x_max":1225,"o":"m 1225 545 q 1200 360 1225 441 q 1134 222 1175 278 q 1042 137 1093 167 q 939 107 991 107 q 834 138 878 107 q 768 237 791 168 l 760 237 q 727 186 745 210 q 686 145 709 163 q 634 117 663 127 q 568 107 605 107 q 486 121 526 107 q 416 165 446 136 q 368 239 385 194 q 350 345 350 283 q 359 425 350 381 q 387 512 368 469 q 436 595 406 555 q 507 667 466 635 q 603 716 549 697 q 724 734 656 734 q 806 722 772 734 q 863 693 841 710 l 921 722 l 954 722 l 896 375 q 893 354 895 367 q 890 328 891 341 q 887 301 888 314 q 886 281 886 289 q 892 234 886 252 q 908 205 899 216 q 929 191 918 195 q 953 187 941 187 q 1009 210 981 187 q 1060 278 1037 233 q 1098 388 1083 322 q 1112 539 1112 454 q 1083 706 1112 634 q 1004 825 1055 778 q 881 897 953 873 q 726 921 810 921 q 597 902 661 921 q 475 849 532 884 q 368 763 417 814 q 283 646 319 711 q 227 501 247 581 q 207 330 207 421 q 243 121 207 208 q 343 -21 280 34 q 490 -101 406 -76 q 667 -126 574 -126 q 777 -116 723 -126 q 878 -90 830 -106 q 968 -52 926 -73 q 1042 -9 1009 -31 l 1075 -62 q 992 -115 1038 -90 q 891 -157 945 -139 q 775 -186 836 -176 q 647 -197 713 -197 q 495 -183 568 -197 q 357 -138 421 -168 q 240 -64 294 -109 q 150 40 187 -19 q 92 174 113 99 q 71 339 71 250 q 94 517 71 432 q 158 674 117 602 q 259 805 199 746 q 393 905 319 864 q 553 969 466 947 q 736 991 640 991 q 948 957 856 991 q 1101 863 1040 922 q 1194 721 1162 803 q 1225 545 1225 638 m 521 330 q 545 224 521 262 q 610 187 570 187 q 661 202 640 187 q 697 239 682 216 q 721 292 711 262 q 736 351 730 321 l 791 635 q 780 652 787 644 q 762 664 772 659 q 740 671 751 669 q 718 673 729 673 q 655 656 684 673 q 605 610 627 638 q 567 544 583 581 q 541 469 551 507 q 526 394 530 431 q 521 330 521 358 z "},"&":{"ha":1112,"x_min":65,"x_max":1095,"o":"m 574 807 q 569 852 574 831 q 554 889 565 873 q 524 913 543 905 q 476 922 505 922 q 436 913 453 922 q 408 889 418 905 q 391 852 397 873 q 386 806 386 831 q 391 760 386 782 q 408 718 397 739 q 434 674 418 696 q 472 628 450 652 q 521 663 501 644 q 552 703 541 682 q 569 749 564 724 q 574 807 574 775 m 269 275 q 282 199 269 235 q 319 136 296 163 q 378 95 343 110 q 453 79 412 79 q 577 103 526 79 q 663 168 629 127 l 366 485 q 318 440 336 464 q 288 391 299 417 q 273 336 277 365 q 269 275 269 307 m 1095 0 l 819 0 l 724 102 q 666 55 698 76 q 597 19 635 34 q 514 -5 559 4 q 418 -14 470 -14 q 267 6 333 -14 q 156 64 201 26 q 88 158 111 102 q 65 282 65 213 q 84 387 65 343 q 136 461 104 430 q 212 514 169 492 q 302 555 256 536 q 255 617 275 588 q 222 676 235 647 q 203 736 210 705 q 197 802 197 767 q 215 885 197 848 q 268 949 233 922 q 355 991 302 977 q 476 1006 408 1006 q 593 990 543 1006 q 676 947 643 975 q 725 884 709 920 q 742 808 742 848 q 729 732 742 766 q 690 670 716 699 q 624 616 664 641 q 530 566 585 591 q 534 561 532 563 q 541 555 537 558 l 737 349 q 749 444 746 397 q 751 530 751 492 l 751 591 l 1055 591 l 1055 518 l 1034 518 q 988 515 1010 518 q 947 503 966 513 q 914 474 928 493 q 890 424 899 456 q 865 341 880 385 q 829 253 850 298 l 968 109 q 1016 81 987 87 q 1082 74 1045 74 l 1095 74 l 1095 0 z "},"*":{"ha":697,"x_min":49,"x_max":648,"o":"m 265 783 l 49 839 l 111 979 l 318 829 l 272 1055 l 428 1055 l 378 832 l 586 977 l 648 838 l 432 783 l 648 728 l 586 590 l 378 734 l 427 510 l 272 510 l 317 736 l 111 589 l 49 726 l 265 783 z "},"÷":{"ha":777,"x_min":90,"x_max":686,"o":"m 311 760 q 317 800 311 783 q 334 826 323 816 q 358 840 344 836 q 389 844 372 844 q 419 840 405 844 q 444 826 433 836 q 460 800 454 816 q 467 760 467 783 q 460 720 467 736 q 444 694 454 704 q 419 679 433 684 q 389 675 405 675 q 333 694 355 675 q 311 760 311 713 m 686 546 l 686 447 l 90 447 l 90 546 l 686 546 m 311 233 q 317 273 311 257 q 334 300 323 290 q 358 314 344 309 q 389 318 372 318 q 419 314 405 318 q 444 300 433 309 q 460 273 454 290 q 467 233 467 257 q 460 194 467 210 q 444 168 454 178 q 419 153 433 157 q 389 149 405 149 q 333 168 355 149 q 311 233 311 186 z "},"×":{"ha":777,"x_min":113,"x_max":663,"o":"m 593 222 l 387 428 l 183 222 l 113 293 l 317 498 l 113 703 l 183 772 l 387 568 l 591 774 l 663 703 l 457 497 l 663 292 l 593 222 z "},"+":{"ha":777,"x_min":90,"x_max":686,"o":"m 686 447 l 437 447 l 437 199 l 338 199 l 338 447 l 90 447 l 90 546 l 338 546 l 338 794 l 437 794 l 437 546 l 686 546 l 686 447 z "},"−":{"ha":431,"x_min":35,"x_max":396,"o":"m 396 452 l 396 306 l 35 306 l 35 452 l 396 452 z "},"=":{"ha":777,"x_min":87,"x_max":689,"o":"m 87 679 l 689 679 l 689 582 l 87 582 l 87 679 m 87 410 l 689 410 l 689 313 l 87 313 l 87 410 z "},"%":{"ha":1258,"x_min":47,"x_max":1211,"o":"m 547 699 q 532 572 547 629 q 486 474 516 515 q 407 411 454 433 q 297 389 360 389 q 184 411 232 389 q 106 474 136 433 q 62 572 76 515 q 47 699 47 629 q 62 825 47 768 q 106 922 76 882 q 184 984 137 962 q 298 1006 232 1006 q 408 984 361 1006 q 486 922 454 962 q 532 825 517 882 q 547 699 547 768 m 920 991 l 441 0 l 334 0 l 812 991 l 920 991 m 204 699 q 209 597 204 642 q 225 522 214 553 q 254 475 236 491 q 297 458 272 458 q 341 475 323 458 q 369 522 358 491 q 384 597 380 553 q 389 699 389 642 q 384 798 389 753 q 370 872 380 842 q 341 919 359 903 q 298 935 324 935 q 255 919 273 935 q 226 872 237 903 q 210 798 215 842 q 204 699 204 753 m 1211 296 q 1196 169 1211 227 q 1149 71 1180 112 q 1071 8 1118 31 q 961 -14 1024 -14 q 848 8 896 -14 q 770 71 800 31 q 726 169 740 112 q 711 296 711 227 q 726 422 711 365 q 770 519 740 479 q 848 581 801 559 q 962 603 896 603 q 1072 581 1025 603 q 1149 519 1118 559 q 1196 422 1181 479 q 1211 296 1211 365 m 868 296 q 873 194 868 239 q 889 119 878 150 q 918 72 900 88 q 961 56 936 56 q 1005 72 987 56 q 1033 119 1022 88 q 1048 194 1044 150 q 1053 296 1053 239 q 1048 395 1053 351 q 1034 469 1044 439 q 1005 516 1023 500 q 962 532 988 532 q 919 516 937 532 q 890 469 901 500 q 873 395 879 439 q 868 296 868 351 z "},"-":{"ha":431,"x_min":35,"x_max":396,"o":"m 396 306 l 35 306 l 35 452 l 396 452 l 396 306 z "},"–":{"ha":694,"x_min":-7,"x_max":701,"o":"m -7 422 l 701 422 l 701 323 l -7 323 l -7 422 z "},"—":{"ha":1389,"x_min":-7,"x_max":1396,"o":"m -7 422 l 1396 422 l 1396 323 l -7 323 l -7 422 z "},"#":{"ha":777,"x_min":39,"x_max":737,"o":"m 343 625 l 294 374 l 440 374 l 489 625 l 343 625 m 539 374 l 693 374 l 693 278 l 519 278 l 468 0 l 370 0 l 421 278 l 277 278 l 224 0 l 125 0 l 178 278 l 39 278 l 39 374 l 196 374 l 244 625 l 83 625 l 83 722 l 262 722 l 311 991 l 411 991 l 361 722 l 505 722 l 557 991 l 656 991 l 604 722 l 737 722 l 737 625 l 586 625 l 539 374 z "},"$":{"ha":777,"x_min":68,"x_max":707,"o":"m 261 765 q 265 730 261 747 q 280 697 269 713 q 309 666 291 681 q 355 635 328 650 l 355 875 q 288 840 315 867 q 261 765 261 812 m 542 264 q 515 339 542 308 q 433 399 488 370 l 433 136 q 514 182 486 148 q 542 264 542 217 m 355 1055 l 433 1055 l 433 950 q 539 937 494 948 q 614 907 585 925 q 657 863 643 888 q 671 811 671 839 q 633 739 671 767 q 518 710 595 710 q 513 754 518 730 q 498 800 509 778 q 472 840 488 822 q 433 868 456 858 l 433 597 q 439 595 435 597 q 449 591 444 593 q 459 587 454 589 q 468 583 465 585 q 577 532 531 558 q 652 474 623 505 q 693 407 680 443 q 707 326 707 370 q 688 228 707 273 q 635 149 669 183 q 549 92 600 114 q 433 62 498 70 l 433 -110 l 355 -110 l 355 60 q 221 80 277 62 q 132 126 166 98 q 83 188 98 154 q 68 254 68 222 q 79 306 68 285 q 109 340 90 328 q 150 359 127 353 q 199 366 174 366 q 210 273 199 313 q 242 203 221 232 q 292 157 262 174 q 355 134 321 139 l 355 433 l 332 443 q 221 498 265 470 q 149 557 176 526 q 110 625 122 589 q 98 707 98 662 q 117 799 98 757 q 170 871 136 840 q 251 923 204 903 q 355 949 298 943 l 355 1055 z "},"¢":{"ha":777,"x_min":79,"x_max":720,"o":"m 387 0 l 387 115 q 261 144 318 120 q 164 212 204 168 q 101 328 123 257 q 79 497 79 398 q 103 673 79 600 q 167 791 126 745 q 264 861 208 838 q 387 889 321 884 l 387 991 l 473 991 l 473 889 q 579 873 532 886 q 656 842 625 861 q 704 798 688 823 q 720 745 720 772 q 712 701 720 722 q 684 663 704 680 q 629 637 664 647 q 541 627 595 627 q 537 684 541 656 q 526 734 534 711 q 505 774 518 758 q 473 799 492 791 l 473 218 q 539 228 508 219 q 596 252 571 237 q 641 287 621 267 q 672 330 660 307 q 698 303 690 320 q 707 267 707 286 q 693 218 707 243 q 650 172 679 193 q 578 135 622 151 q 473 115 534 119 l 473 0 l 387 0 m 292 498 q 314 326 292 392 q 387 235 337 260 l 387 796 q 347 765 365 786 q 317 708 330 743 q 298 621 304 673 q 292 498 292 569 z "},"₹":{"ha":824,"x_min":68,"x_max":758,"o":"m 756 74 l 756 0 l 711 0 q 531 19 600 0 q 413 125 462 39 l 248 431 l 68 431 l 68 511 l 234 511 q 360 555 323 511 q 401 681 397 598 l 68 681 l 68 763 l 400 763 q 355 874 393 839 q 231 909 316 909 l 68 909 l 68 991 l 758 991 l 758 909 l 564 909 q 613 845 595 882 q 634 763 630 808 l 758 763 l 758 681 l 631 681 q 568 553 618 604 q 446 472 518 501 l 612 187 q 673 106 640 139 q 751 74 706 74 l 756 74 z "},"^":{"ha":777,"x_min":64,"x_max":711,"o":"m 64 364 l 357 991 l 416 991 l 711 364 l 603 364 l 386 840 l 172 364 l 64 364 z "},"_":{"ha":637,"x_min":-7,"x_max":644,"o":"m 644 -115 l 644 -197 l -7 -197 l -7 -115 l 644 -115 z "},"`":{"ha":802,"x_min":225,"x_max":578,"o":"m 578 842 l 484 842 q 411 889 451 861 q 335 947 372 917 q 268 1004 298 977 q 225 1050 238 1031 l 225 1064 l 443 1064 q 471 1014 454 1041 q 507 959 488 986 q 544 906 525 932 q 578 860 563 880 l 578 842 z "},"~":{"ha":779,"x_min":77,"x_max":703,"o":"m 367 450 q 323 468 342 461 q 289 480 304 475 q 260 486 274 484 q 231 488 245 488 q 191 481 212 488 q 151 464 171 475 q 112 438 131 453 q 77 406 93 423 l 77 513 q 152 568 110 549 q 244 586 194 586 q 281 584 264 586 q 317 578 298 583 q 358 565 335 574 q 412 543 380 557 q 456 525 437 532 q 491 513 475 517 q 520 507 507 509 q 549 505 534 505 q 588 512 568 505 q 629 530 608 519 q 667 555 648 541 q 703 587 686 570 l 703 481 q 627 426 669 444 q 534 407 585 407 q 498 409 515 407 q 463 415 481 410 q 421 428 444 420 q 367 450 399 437 z "},"ऀ":{"ha":0,"x_min":-279,"x_max":226,"o":"m 226 1086 q 211 1039 226 1050 q 179 1021 197 1027 q 108 1163 151 1118 q -1 1208 65 1208 q -114 1163 -68 1208 q -183 1027 -160 1118 q -255 1061 -231 1038 q -279 1121 -279 1084 q -214 1264 -279 1196 q -38 1332 -149 1332 q 159 1243 93 1332 q 226 1086 226 1154 m 81 1061 q 57 1003 81 1027 q 0 979 33 979 q -58 1003 -34 979 q -83 1061 -83 1027 q -58 1118 -83 1094 q 0 1143 -34 1143 q 57 1118 33 1143 q 81 1061 81 1094 z "},"ँ":{"ha":0,"x_min":-234,"x_max":271,"o":"m -83 1252 q -58 1309 -83 1285 q 0 1333 -34 1333 q 57 1309 33 1333 q 81 1252 81 1285 q 57 1194 81 1219 q 0 1170 33 1170 q -58 1194 -34 1170 q -83 1252 -83 1219 m -234 1227 q -219 1274 -234 1262 q -187 1291 -205 1286 q -116 1150 -159 1195 q -7 1105 -73 1105 q 106 1149 60 1105 q 175 1286 152 1194 q 247 1251 223 1274 q 271 1192 271 1228 q 206 1049 271 1117 q 30 981 140 981 q -168 1069 -101 981 q -234 1227 -234 1158 z "},"ं":{"ha":0,"x_min":-86,"x_max":85,"o":"m -86 1061 q -61 1121 -86 1095 q 0 1146 -35 1146 q 60 1121 35 1146 q 85 1061 85 1095 q 60 1001 85 1026 q 0 975 35 975 q -61 1001 -35 975 q -86 1061 -86 1026 z "},"ः":{"ha":443,"x_min":105,"x_max":301,"o":"m 105 606 q 134 676 105 647 q 203 705 162 705 q 272 676 243 705 q 301 606 301 647 q 272 537 301 566 q 203 509 243 509 q 134 537 162 509 q 105 606 105 566 m 105 168 q 134 237 105 209 q 203 266 162 266 q 272 237 243 266 q 301 168 301 209 q 272 99 301 128 q 203 71 243 71 q 134 99 162 71 q 105 168 105 128 z "},"ऄ":{"ha":1092,"x_min":54,"x_max":1128,"o":"m 1092 902 l 1128 787 l 1116 771 l 964 771 l 964 -26 l 949 -39 l 802 -14 l 802 349 q 776 345 787 346 q 753 344 766 344 q 702 349 726 344 q 646 364 678 353 q 675 293 665 331 q 686 218 686 256 q 622 63 686 125 q 450 1 557 1 q 151 179 248 1 q 54 448 54 356 q 70 503 54 482 q 132 526 87 523 q 229 258 161 346 q 395 171 296 171 q 504 207 463 171 q 545 297 545 242 q 531 361 545 329 q 489 415 516 393 q 419 395 458 404 q 334 381 380 387 l 263 526 l 273 543 q 439 593 385 549 q 492 697 492 636 q 464 774 492 745 q 391 803 435 803 q 297 757 334 803 q 260 642 260 711 q 148 672 189 642 q 106 751 106 703 q 163 857 106 808 q 331 905 220 905 q 554 822 469 905 q 639 614 639 739 q 629 546 639 576 q 596 484 619 515 q 623 480 610 481 q 647 479 636 479 q 758 516 713 479 q 802 622 802 553 l 802 771 l 691 771 l 655 886 l 667 902 l 809 902 q 817 929 814 916 q 819 951 819 942 q 788 994 819 981 q 661 1013 756 1007 q 310 1100 417 1027 q 203 1256 203 1173 q 209 1294 203 1278 q 229 1326 215 1310 q 347 1235 274 1265 q 593 1180 420 1206 q 825 1088 737 1158 q 954 902 912 1018 l 1092 902 z "},"अ":{"ha":1092,"x_min":54,"x_max":1128,"o":"m 106 751 q 163 857 106 808 q 331 905 220 905 q 554 822 469 905 q 639 614 639 739 q 629 546 639 576 q 596 484 619 515 q 623 480 610 481 q 647 479 636 479 q 758 516 713 479 q 802 622 802 553 l 802 771 l 691 771 l 655 886 l 667 902 l 1092 902 l 1128 787 l 1116 771 l 964 771 l 964 -26 l 949 -39 l 802 -14 l 802 349 q 776 345 787 346 q 753 344 766 344 q 702 349 726 344 q 646 364 678 353 q 675 293 665 331 q 686 218 686 256 q 622 63 686 125 q 450 1 557 1 q 151 179 248 1 q 54 448 54 356 q 70 503 54 482 q 132 526 87 523 q 229 258 161 346 q 395 171 296 171 q 504 207 463 171 q 545 297 545 242 q 531 361 545 329 q 489 415 516 393 q 419 395 458 404 q 334 381 380 387 l 263 526 l 273 543 q 439 593 385 549 q 492 697 492 636 q 464 774 492 745 q 391 803 435 803 q 297 757 334 803 q 260 642 260 711 q 148 672 189 642 q 106 751 106 703 z "},"आ":{"ha":1460,"x_min":54,"x_max":1496,"o":"m 1460 902 l 1496 787 l 1485 771 l 1320 771 l 1320 -26 l 1305 -39 l 1157 -14 l 1157 771 l 964 771 l 964 -26 l 949 -39 l 802 -14 l 802 349 q 776 345 787 346 q 753 344 766 344 q 702 349 726 344 q 646 364 678 353 q 675 293 665 331 q 686 218 686 256 q 622 63 686 125 q 450 1 557 1 q 151 179 248 1 q 54 448 54 356 q 70 503 54 482 q 132 526 87 523 q 229 258 161 346 q 395 171 296 171 q 504 207 463 171 q 545 297 545 242 q 531 361 545 329 q 489 415 516 393 q 419 395 458 404 q 334 381 380 387 l 263 526 l 273 543 q 439 593 385 549 q 492 697 492 636 q 464 774 492 745 q 391 803 435 803 q 297 757 334 803 q 260 642 260 711 q 148 672 189 642 q 106 751 106 703 q 163 857 106 808 q 331 905 220 905 q 554 822 469 905 q 639 614 639 739 q 629 546 639 576 q 596 484 619 515 q 623 480 610 481 q 647 479 636 479 q 758 516 713 479 q 802 622 802 553 l 802 771 l 691 771 l 655 886 l 667 902 l 1460 902 z "},"इ":{"ha":743,"x_min":-36,"x_max":779,"o":"m 598 566 l 332 566 q 257 552 287 566 q 228 510 228 537 q 239 483 228 494 q 270 471 250 471 q 352 485 295 471 q 443 498 409 498 q 587 414 519 498 q 655 246 655 330 q 600 126 655 181 q 416 62 545 72 q 463 6 437 20 q 529 -9 489 -9 q 568 -6 550 -9 q 605 2 587 -3 q 630 -39 621 -19 q 639 -78 639 -59 q 611 -136 639 -114 q 541 -158 584 -158 q 420 -109 484 -158 q 310 62 356 -59 q 163 117 215 71 q 112 220 112 164 q 135 280 112 258 q 199 303 159 303 q 269 282 237 303 q 326 224 300 260 q 475 258 425 224 q 526 328 526 292 q 517 350 526 344 q 497 355 509 355 q 431 345 475 355 q 349 334 387 334 q 158 426 245 334 q 71 594 71 519 q 107 667 71 637 q 222 696 144 696 l 439 696 q 450 699 446 696 q 453 709 453 703 l 453 771 l 0 771 l -36 886 l -24 902 l 743 902 l 779 787 l 768 771 l 612 771 l 612 580 l 598 566 z "},"ई":{"ha":743,"x_min":-36,"x_max":779,"o":"m 598 566 l 332 566 q 257 552 287 566 q 228 510 228 537 q 239 483 228 494 q 270 471 250 471 q 352 485 295 471 q 443 498 409 498 q 587 414 519 498 q 655 246 655 330 q 600 126 655 181 q 416 62 545 72 q 463 6 437 20 q 529 -9 489 -9 q 568 -6 550 -9 q 605 2 587 -3 q 630 -39 621 -19 q 639 -78 639 -59 q 611 -136 639 -114 q 541 -158 584 -158 q 420 -109 484 -158 q 310 62 356 -59 q 163 117 215 71 q 112 220 112 164 q 135 280 112 258 q 199 303 159 303 q 269 282 237 303 q 326 224 300 260 q 475 258 425 224 q 526 328 526 292 q 517 350 526 344 q 497 355 509 355 q 431 345 475 355 q 349 334 387 334 q 158 426 245 334 q 71 594 71 519 q 107 667 71 637 q 222 696 144 696 l 439 696 q 450 699 446 696 q 453 709 453 703 l 453 771 l 0 771 l -36 886 l -24 902 l 416 902 q 353 989 374 945 q 332 1080 332 1034 q 382 1206 332 1155 q 520 1257 431 1257 q 664 1208 609 1257 q 720 1098 720 1158 q 719 1087 720 1093 q 717 1077 718 1082 q 656 1112 688 1102 q 598 1122 625 1122 q 511 1088 543 1122 q 480 1007 480 1055 q 491 953 480 979 q 525 902 503 926 l 743 902 l 779 787 l 768 771 l 612 771 l 612 580 l 598 566 z "},"उ":{"ha":799,"x_min":-36,"x_max":835,"o":"m 799 902 l 835 787 l 823 771 l 585 771 q 646 686 628 728 q 665 605 665 644 q 648 528 665 565 q 596 462 631 491 q 674 362 644 420 q 703 239 703 305 q 633 70 703 138 q 445 1 564 1 q 127 191 227 1 q 26 479 26 381 q 43 535 26 513 q 106 560 59 556 q 215 263 137 359 q 393 168 294 168 q 508 207 460 168 q 555 315 555 246 q 545 369 555 345 q 511 413 534 393 q 426 391 473 399 q 323 383 378 383 l 254 546 l 265 562 q 450 596 398 568 q 503 680 503 625 q 472 749 503 726 q 389 771 441 771 l 0 771 l -36 886 l -24 902 l 799 902 z "},"ऊ":{"ha":1059,"x_min":-36,"x_max":1095,"o":"m 1083 771 l 585 771 q 646 686 628 728 q 665 605 665 644 q 648 528 665 565 q 596 462 631 491 q 607 452 602 457 q 618 441 613 446 q 705 514 667 494 q 781 535 744 535 q 952 443 873 535 q 1031 229 1031 351 q 990 90 1031 142 q 897 38 950 38 q 815 66 859 38 q 745 144 772 94 q 843 225 806 171 q 881 342 881 280 q 869 394 881 378 q 838 410 857 410 q 773 378 809 410 q 699 288 736 347 q 702 264 701 277 q 703 239 703 252 q 633 70 703 138 q 445 1 564 1 q 127 191 227 1 q 26 479 26 381 q 43 535 26 513 q 106 560 59 556 q 215 263 137 359 q 393 168 294 168 q 508 207 460 168 q 555 315 555 246 q 545 369 555 345 q 511 413 534 393 q 426 391 473 399 q 323 383 378 383 l 254 546 l 265 562 q 450 596 398 568 q 503 680 503 625 q 472 749 503 726 q 389 771 441 771 l 0 771 l -36 886 l -24 902 l 1059 902 l 1095 787 l 1083 771 z "},"ऋ":{"ha":1201,"x_min":-36,"x_max":1237,"o":"m 1201 902 l 1237 787 l 1225 771 l 701 771 l 701 491 q 773 512 739 498 q 837 547 806 526 q 815 590 821 572 q 809 624 809 609 q 831 685 809 655 q 903 715 852 715 q 1011 668 966 715 q 1056 566 1056 621 q 1043 511 1056 538 q 1004 458 1030 484 q 1100 316 1069 376 q 1131 203 1131 255 q 1087 93 1131 136 q 980 49 1042 49 q 887 85 925 49 q 841 183 849 121 q 951 217 913 190 q 989 291 989 244 q 980 336 989 309 q 937 409 970 362 q 829 364 890 382 q 701 344 768 347 l 701 -26 l 686 -39 l 538 -14 l 538 273 q 408 171 463 217 q 290 66 353 124 l 157 182 l 157 201 q 311 330 230 266 q 483 453 393 394 q 373 520 408 506 q 316 534 339 534 q 240 513 277 534 q 176 457 203 492 q 93 515 122 485 q 64 579 64 545 q 104 655 64 620 q 220 691 145 691 q 339 657 277 691 q 538 522 402 624 l 538 771 l 0 771 l -36 886 l -24 902 l 1201 902 z "},"ऌ":{"ha":1011,"x_min":-36,"x_max":1047,"o":"m 1011 902 l 1047 787 l 1036 771 l 783 771 l 783 593 q 899 492 851 561 q 947 337 947 424 q 930 254 947 294 q 865 156 913 215 q 764 46 800 77 q 729 -11 729 16 q 736 -30 729 -22 q 759 -37 744 -37 q 829 -14 785 -37 q 903 59 874 9 q 984 9 953 45 q 1015 -58 1015 -26 q 968 -134 1015 -99 q 851 -170 921 -170 q 674 -102 754 -170 q 594 36 594 -35 q 633 139 594 88 q 704 226 672 189 q 783 329 754 283 q 812 414 812 375 q 796 456 812 443 q 755 469 780 469 q 646 422 706 469 q 541 267 587 375 l 522 261 l 385 354 q 407 406 395 381 q 431 452 418 431 q 386 473 408 467 q 342 480 363 480 q 260 442 292 480 q 229 349 229 404 q 285 185 229 276 q 441 23 340 94 q 422 -16 437 0 q 380 -33 406 -33 q 184 119 298 -33 q 69 422 69 271 q 120 569 69 512 q 262 627 171 627 q 370 603 315 627 q 484 522 425 578 q 553 579 517 557 q 627 610 590 602 l 627 771 l 0 771 l -36 886 l -24 902 l 1011 902 z "},"ऍ":{"ha":818,"x_min":-36,"x_max":854,"o":"m 147 1227 q 162 1274 147 1262 q 194 1291 176 1286 q 265 1150 222 1195 q 374 1105 308 1105 q 487 1149 441 1105 q 556 1286 533 1194 q 628 1251 604 1274 q 652 1192 652 1228 q 587 1049 652 1117 q 411 981 522 981 q 214 1069 280 981 q 147 1227 147 1158 m 818 902 l 854 787 l 842 771 l 670 771 l 670 439 q 644 358 670 388 q 573 328 617 328 q 495 354 532 328 q 427 421 459 380 q 487 465 467 435 q 507 530 507 494 l 507 771 l 247 771 l 246 441 q 290 362 246 385 q 488 256 333 340 q 692 124 614 188 q 770 -23 770 60 q 735 -121 770 -81 q 651 -161 700 -161 q 574 -132 610 -161 q 515 -54 538 -102 q 590 -1 570 -28 q 610 55 610 25 q 586 101 610 80 q 465 166 562 121 q 169 326 255 263 q 83 520 83 389 l 83 771 l 0 771 l -36 886 l -24 902 l 818 902 z "},"ऎ":{"ha":818,"x_min":-68,"x_max":854,"o":"m 573 328 q 495 354 532 328 q 427 421 459 380 q 487 465 467 435 q 507 530 507 494 l 507 771 l 247 771 l 246 441 q 290 362 246 385 q 488 256 333 340 q 692 124 614 188 q 770 -23 770 60 q 735 -121 770 -81 q 651 -161 700 -161 q 574 -132 610 -161 q 515 -54 538 -102 q 590 -1 570 -28 q 610 55 610 25 q 586 101 610 80 q 465 166 562 121 q 169 326 255 263 q 83 520 83 389 l 83 771 l 0 771 l -36 886 l -24 902 l 511 902 q 518 929 516 916 q 521 951 521 942 q 489 994 521 981 q 363 1013 458 1007 q 32 1100 132 1027 q -68 1256 -68 1173 q -62 1294 -68 1278 q -42 1326 -56 1310 q 66 1235 -1 1265 q 294 1180 134 1206 q 526 1088 439 1158 q 656 902 614 1018 l 818 902 l 854 787 l 842 771 l 670 771 l 670 439 q 644 358 670 388 q 573 328 617 328 z "},"ए":{"ha":818,"x_min":-36,"x_max":854,"o":"m 818 902 l 854 787 l 842 771 l 670 771 l 670 439 q 644 358 670 388 q 573 328 617 328 q 495 354 532 328 q 427 421 459 380 q 487 465 467 435 q 507 530 507 494 l 507 771 l 247 771 l 246 441 q 290 362 246 385 q 488 256 333 340 q 692 124 614 188 q 770 -23 770 60 q 735 -121 770 -81 q 651 -161 700 -161 q 574 -132 610 -161 q 515 -54 538 -102 q 590 -1 570 -28 q 610 55 610 25 q 586 101 610 80 q 465 166 562 121 q 169 326 255 263 q 83 520 83 389 l 83 771 l 0 771 l -36 886 l -24 902 l 818 902 z "},"ऐ":{"ha":818,"x_min":-36,"x_max":854,"o":"m 573 328 q 495 354 532 328 q 427 421 459 380 q 487 465 467 435 q 507 530 507 494 l 507 771 l 247 771 l 246 441 q 290 362 246 385 q 488 256 333 340 q 692 124 614 188 q 770 -23 770 60 q 735 -121 770 -81 q 651 -161 700 -161 q 574 -132 610 -161 q 515 -54 538 -102 q 590 -1 570 -28 q 610 55 610 25 q 586 101 610 80 q 465 166 562 121 q 169 326 255 263 q 83 520 83 389 l 83 771 l 0 771 l -36 886 l -24 902 l 505 902 q 337 1083 391 1042 q 237 1124 283 1124 q 179 1111 203 1124 q 142 1077 155 1097 q 44 1135 81 1095 q 7 1216 7 1175 q 37 1280 7 1251 q 133 1310 66 1310 q 331 1224 224 1310 q 619 902 437 1138 l 818 902 l 854 787 l 842 771 l 670 771 l 670 439 q 644 358 670 388 q 573 328 617 328 z "},"ऑ":{"ha":1460,"x_min":54,"x_max":1496,"o":"m 1310 1192 q 1245 1049 1310 1117 q 1069 981 1179 981 q 871 1069 938 981 q 805 1227 805 1158 q 820 1274 805 1262 q 852 1291 834 1286 q 923 1150 880 1195 q 1032 1105 966 1105 q 1145 1149 1099 1105 q 1214 1286 1191 1194 q 1286 1251 1262 1274 q 1310 1192 1310 1228 m 1460 902 l 1496 787 l 1485 771 l 1320 771 l 1320 -26 l 1305 -39 l 1157 -14 l 1157 771 l 964 771 l 964 -26 l 949 -39 l 802 -14 l 802 349 q 776 345 787 346 q 753 344 766 344 q 702 349 726 344 q 646 364 678 353 q 675 293 665 331 q 686 218 686 256 q 622 63 686 125 q 450 1 557 1 q 151 179 248 1 q 54 448 54 356 q 70 503 54 482 q 132 526 87 523 q 229 258 161 346 q 395 171 296 171 q 504 207 463 171 q 545 297 545 242 q 531 361 545 329 q 489 415 516 393 q 419 395 458 404 q 334 381 380 387 l 263 526 l 273 543 q 439 593 385 549 q 492 697 492 636 q 464 774 492 745 q 391 803 435 803 q 297 757 334 803 q 260 642 260 711 q 148 672 189 642 q 106 751 106 703 q 163 857 106 808 q 331 905 220 905 q 554 822 469 905 q 639 614 639 739 q 629 546 639 576 q 596 484 619 515 q 623 480 610 481 q 647 479 636 479 q 758 516 713 479 q 802 622 802 553 l 802 771 l 691 771 l 655 886 l 667 902 l 1460 902 z "},"ऒ":{"ha":1460,"x_min":54,"x_max":1496,"o":"m 1460 902 l 1496 787 l 1485 771 l 1320 771 l 1320 -26 l 1305 -39 l 1157 -14 l 1157 771 l 964 771 l 964 -26 l 949 -39 l 802 -14 l 802 349 q 776 345 787 346 q 753 344 766 344 q 702 349 726 344 q 646 364 678 353 q 675 293 665 331 q 686 218 686 256 q 622 63 686 125 q 450 1 557 1 q 151 179 248 1 q 54 448 54 356 q 70 503 54 482 q 132 526 87 523 q 229 258 161 346 q 395 171 296 171 q 504 207 463 171 q 545 297 545 242 q 531 361 545 329 q 489 415 516 393 q 419 395 458 404 q 334 381 380 387 l 263 526 l 273 543 q 439 593 385 549 q 492 697 492 636 q 464 774 492 745 q 391 803 435 803 q 297 757 334 803 q 260 642 260 711 q 148 672 189 642 q 106 751 106 703 q 163 857 106 808 q 331 905 220 905 q 554 822 469 905 q 639 614 639 739 q 629 546 639 576 q 596 484 619 515 q 623 480 610 481 q 647 479 636 479 q 758 516 713 479 q 802 622 802 553 l 802 771 l 691 771 l 655 886 l 667 902 l 1165 902 q 1173 929 1171 916 q 1175 951 1175 942 q 1144 994 1175 981 q 1017 1013 1112 1007 q 687 1100 787 1027 q 587 1256 587 1173 q 592 1294 587 1278 q 612 1326 598 1310 q 721 1235 653 1265 q 949 1180 788 1206 q 1181 1088 1093 1158 q 1310 902 1268 1018 l 1460 902 z "},"ओ":{"ha":1460,"x_min":54,"x_max":1496,"o":"m 1460 902 l 1496 787 l 1485 771 l 1320 771 l 1320 -26 l 1305 -39 l 1157 -14 l 1157 771 l 964 771 l 964 -26 l 949 -39 l 802 -14 l 802 349 q 776 345 787 346 q 753 344 766 344 q 702 349 726 344 q 646 364 678 353 q 675 293 665 331 q 686 218 686 256 q 622 63 686 125 q 450 1 557 1 q 151 179 248 1 q 54 448 54 356 q 70 503 54 482 q 132 526 87 523 q 229 258 161 346 q 395 171 296 171 q 504 207 463 171 q 545 297 545 242 q 531 361 545 329 q 489 415 516 393 q 419 395 458 404 q 334 381 380 387 l 263 526 l 273 543 q 439 593 385 549 q 492 697 492 636 q 464 774 492 745 q 391 803 435 803 q 297 757 334 803 q 260 642 260 711 q 148 672 189 642 q 106 751 106 703 q 163 857 106 808 q 331 905 220 905 q 554 822 469 905 q 639 614 639 739 q 629 546 639 576 q 596 484 619 515 q 623 480 610 481 q 647 479 636 479 q 758 516 713 479 q 802 622 802 553 l 802 771 l 691 771 l 655 886 l 667 902 l 1165 902 q 991 1083 1047 1042 q 886 1124 935 1124 q 829 1111 853 1124 q 791 1077 805 1097 q 694 1135 731 1095 q 656 1216 656 1175 q 686 1280 656 1251 q 783 1310 716 1310 q 986 1224 876 1310 q 1282 902 1095 1138 l 1460 902 z "},"औ":{"ha":1460,"x_min":54,"x_max":1496,"o":"m 1460 902 l 1496 787 l 1485 771 l 1320 771 l 1320 -26 l 1305 -39 l 1157 -14 l 1157 771 l 964 771 l 964 -26 l 949 -39 l 802 -14 l 802 349 q 776 345 787 346 q 753 344 766 344 q 702 349 726 344 q 646 364 678 353 q 675 293 665 331 q 686 218 686 256 q 622 63 686 125 q 450 1 557 1 q 151 179 248 1 q 54 448 54 356 q 70 503 54 482 q 132 526 87 523 q 229 258 161 346 q 395 171 296 171 q 504 207 463 171 q 545 297 545 242 q 531 361 545 329 q 489 415 516 393 q 419 395 458 404 q 334 381 380 387 l 263 526 l 273 543 q 439 593 385 549 q 492 697 492 636 q 464 774 492 745 q 391 803 435 803 q 297 757 334 803 q 260 642 260 711 q 148 672 189 642 q 106 751 106 703 q 163 857 106 808 q 331 905 220 905 q 554 822 469 905 q 639 614 639 739 q 629 546 639 576 q 596 484 619 515 q 623 480 610 481 q 647 479 636 479 q 758 516 713 479 q 802 622 802 553 l 802 771 l 691 771 l 655 886 l 667 902 l 1138 902 q 1000 986 1066 956 q 896 1015 935 1015 q 840 1002 863 1015 q 805 966 818 989 q 704 1020 736 985 q 672 1093 672 1054 q 705 1160 672 1138 q 779 1181 739 1181 q 956 1124 846 1181 q 1185 968 1065 1067 q 1097 1159 1129 1114 q 1034 1203 1064 1203 q 1001 1195 1016 1203 q 975 1174 986 1186 q 885 1232 911 1199 q 858 1296 858 1265 q 882 1353 858 1327 q 958 1378 907 1378 q 1135 1273 1048 1378 q 1301 902 1221 1167 l 1460 902 z "},"क":{"ha":1100,"x_min":-36,"x_max":1136,"o":"m 497 395 q 458 485 497 446 q 360 524 420 524 q 259 483 299 524 q 220 382 220 441 q 258 286 220 323 q 351 250 297 250 q 452 288 407 250 q 497 385 497 326 l 497 395 m 1100 902 l 1136 787 l 1124 771 l 660 771 l 660 593 q 710 620 686 612 q 763 628 734 628 q 955 540 867 628 q 1042 309 1042 452 q 995 150 1042 204 q 894 95 949 95 q 821 117 861 95 q 751 185 782 138 q 860 290 818 219 q 903 420 903 361 q 881 480 903 463 q 826 498 859 498 q 712 442 764 498 q 660 283 660 385 l 660 -26 l 645 -39 l 497 -14 l 497 134 q 449 124 472 127 q 407 121 425 121 q 177 220 286 121 q 67 449 67 318 q 131 607 67 544 q 289 669 194 669 q 391 649 338 669 q 497 578 445 628 l 497 771 l 0 771 l -36 886 l -24 902 l 1100 902 z "},"ख":{"ha":1150,"x_min":-36,"x_max":1186,"o":"m 846 414 q 812 495 846 459 q 721 532 779 532 q 633 498 666 532 q 600 419 600 465 q 635 335 600 372 q 729 297 670 297 q 813 328 780 297 q 846 410 846 359 l 846 414 m 1150 902 l 1186 787 l 1175 771 l 1009 771 l 1009 -26 l 994 -39 l 846 -14 l 846 189 q 803 177 823 180 q 764 174 783 174 q 561 266 654 174 q 467 477 467 358 q 521 616 467 563 q 663 669 576 669 q 760 650 713 669 q 846 595 807 631 l 846 771 l 340 771 q 387 647 369 709 q 405 526 405 585 q 369 388 405 452 q 237 294 332 323 q 440 143 319 201 q 721 65 562 85 q 683 -9 712 19 q 595 -37 654 -37 q 244 134 436 -37 q 53 442 53 304 q 76 507 53 486 q 142 528 100 528 q 183 524 161 528 q 231 509 206 519 q 253 556 245 529 q 260 617 260 583 q 252 692 260 652 q 230 771 245 731 l 0 771 l -36 886 l -24 902 l 1150 902 z "},"ग":{"ha":882,"x_min":-36,"x_max":918,"o":"m 882 902 l 918 787 l 907 771 l 755 771 l 755 -26 l 741 -39 l 593 -14 l 593 771 l 352 771 l 352 349 q 334 240 352 274 q 275 205 315 205 q 123 286 199 205 q 47 413 47 366 q 63 445 47 432 q 115 458 79 458 l 193 458 l 193 771 l 0 771 l -36 886 l -24 902 l 882 902 z "},"घ":{"ha":896,"x_min":-36,"x_max":932,"o":"m 896 902 l 932 787 l 920 771 l 769 771 l 769 -26 l 754 -39 l 606 -14 l 606 140 q 540 121 571 127 q 479 116 509 116 q 261 201 347 116 q 176 382 176 286 q 183 438 176 410 q 206 492 191 467 q 100 600 135 541 q 64 713 64 659 q 67 743 64 728 q 75 771 70 758 l 0 771 l -36 886 l -24 902 l 896 902 m 606 771 l 369 771 q 264 732 302 771 q 225 644 225 693 q 235 600 225 621 q 264 559 244 578 q 325 597 292 581 q 397 623 359 614 l 519 502 l 513 484 q 362 410 411 456 q 313 319 313 364 q 341 264 313 283 q 412 245 370 245 q 541 290 477 245 q 606 427 604 336 l 606 771 z "},"ङ":{"ha":863,"x_min":-36,"x_max":899,"o":"m 641 493 q 666 553 641 528 q 727 578 692 578 q 787 553 762 578 q 812 493 812 528 q 787 433 812 458 q 727 408 762 408 q 666 433 692 408 q 641 493 641 458 m 863 902 l 899 787 l 887 771 l 625 771 l 625 593 l 612 580 l 352 580 q 283 565 312 580 q 255 521 255 550 q 270 489 255 502 q 324 477 286 477 q 398 481 350 477 q 469 486 446 486 q 624 401 555 486 q 692 216 692 317 q 630 75 692 123 q 471 26 568 26 q 168 160 283 26 q 48 363 53 294 q 60 406 46 390 q 97 431 75 422 q 245 246 160 309 q 417 183 330 183 q 524 214 481 183 q 567 292 567 245 q 558 324 567 309 q 524 338 549 338 q 464 333 507 338 q 393 327 421 327 q 197 420 290 327 q 104 596 104 513 q 138 668 104 641 q 242 696 172 696 l 453 696 q 463 699 460 696 q 467 709 467 703 l 467 771 l 0 771 l -36 886 l -24 902 l 863 902 z "},"च":{"ha":933,"x_min":-39,"x_max":969,"o":"m 933 902 l 969 787 l 958 771 l 806 771 l 806 -26 l 791 -39 l 644 -14 l 644 161 q 570 142 606 148 q 504 136 535 136 q 276 225 366 136 q 186 417 186 313 q 192 466 186 443 q 211 515 198 489 l 77 515 l 41 631 l 52 646 l 536 646 l 572 531 l 561 515 l 540 515 q 387 466 444 515 q 330 355 330 416 q 358 286 330 313 q 439 260 387 260 q 581 316 517 260 q 644 448 644 373 l 644 771 l -3 771 l -39 886 l -28 902 l 933 902 z "},"छ":{"ha":970,"x_min":-36,"x_max":1006,"o":"m 774 771 l 774 671 q 856 574 821 637 q 891 424 891 512 q 780 138 891 269 q 509 7 668 7 q 282 93 382 7 q 182 287 182 178 q 189 333 182 311 q 208 374 195 355 q 115 457 150 405 q 79 566 79 509 q 132 676 79 636 q 258 717 185 717 q 343 690 307 717 q 410 581 380 664 q 271 554 317 581 q 225 490 225 528 q 235 459 225 473 q 264 433 244 445 q 324 464 290 452 q 397 480 358 477 l 511 361 l 505 343 q 371 292 415 330 q 326 212 326 255 q 351 158 326 181 q 426 134 376 134 q 571 184 499 134 q 692 307 644 233 q 565 443 605 377 q 526 571 526 508 q 554 664 526 630 q 625 709 583 699 l 625 771 l 0 771 l -36 886 l -24 902 l 970 902 l 1006 787 l 995 771 l 774 771 m 661 505 q 676 445 661 476 q 732 380 692 414 q 757 452 748 415 q 766 524 766 490 q 759 571 766 551 q 726 591 751 591 q 680 566 699 591 q 661 505 661 541 z "},"ज":{"ha":1004,"x_min":-36,"x_max":1040,"o":"m 1004 902 l 1040 787 l 1029 771 l 878 771 l 878 -26 l 863 -39 l 715 -14 l 715 495 l 530 495 q 591 399 570 448 q 612 300 612 351 q 551 155 612 210 q 404 101 491 101 q 143 281 226 101 q 61 550 61 461 q 80 615 61 595 q 143 640 98 635 q 225 357 172 444 q 355 271 279 271 q 433 298 399 271 q 467 377 467 326 q 433 459 467 424 q 335 495 400 495 l 299 610 l 311 626 l 715 626 l 715 771 l 0 771 l -36 886 l -24 902 l 1004 902 z "},"झ":{"ha":1056,"x_min":-38,"x_max":1092,"o":"m 766 771 l 576 771 l 576 580 l 562 566 l 330 566 q 255 552 285 566 q 226 510 226 537 q 237 483 226 494 q 268 471 248 471 q 343 485 291 471 q 427 498 396 498 q 476 489 452 498 q 523 462 500 479 q 571 449 548 453 q 613 445 593 445 q 722 482 677 445 q 766 588 766 519 l 766 771 m 1092 787 l 1080 771 l 928 771 l 928 -26 l 913 -39 l 766 -14 l 766 324 q 748 322 758 323 q 728 321 738 321 q 673 326 701 321 q 616 342 645 332 q 633 294 627 319 q 640 246 640 269 q 585 126 640 181 q 400 62 530 72 q 447 6 421 20 q 513 -9 473 -9 q 553 -6 534 -9 q 589 2 571 -3 q 614 -39 606 -19 q 623 -78 623 -59 q 596 -136 623 -114 q 526 -158 568 -158 q 405 -109 469 -158 q 294 62 340 -59 q 148 117 199 71 q 96 220 96 164 q 120 280 96 258 q 183 303 143 303 q 253 282 222 303 q 310 224 284 260 q 460 258 410 224 q 510 328 510 292 q 502 350 510 344 q 481 355 493 355 q 421 345 461 355 q 347 334 381 334 q 156 426 243 334 q 68 594 68 519 q 105 667 68 637 q 220 696 142 696 l 404 696 q 414 699 410 696 q 417 709 417 703 l 417 771 l -2 771 l -38 886 l -26 902 l 1056 902 l 1092 787 z "},"ञ":{"ha":1086,"x_min":-36,"x_max":1122,"o":"m 1086 902 l 1122 787 l 1110 771 l 959 771 l 959 -26 l 944 -39 l 796 -14 l 796 287 l 794 287 q 735 298 763 287 q 680 330 707 310 q 615 166 675 234 q 434 98 555 98 q 145 246 241 98 q 48 503 48 394 q 64 562 48 541 q 124 583 79 583 q 217 331 153 413 q 372 249 281 249 q 496 303 454 249 q 539 425 539 358 q 517 498 539 476 q 458 520 495 520 q 395 502 422 520 q 347 450 367 483 q 254 497 283 461 q 224 568 224 533 q 260 641 224 608 q 363 674 296 674 q 539 608 454 674 q 660 444 623 542 q 679 439 669 441 q 697 438 688 438 q 764 458 732 438 q 796 534 796 478 l 796 771 l 0 771 l -36 886 l -24 902 l 1086 902 z "},"ट":{"ha":724,"x_min":-36,"x_max":760,"o":"m 724 902 l 760 787 l 749 771 l 591 771 l 591 528 l 578 515 l 436 515 q 255 456 321 515 q 189 313 189 398 q 237 198 189 239 q 355 157 285 157 q 489 196 425 157 q 577 295 552 235 q 650 253 618 286 q 682 177 682 220 q 614 68 682 116 q 444 21 545 21 q 160 136 286 21 q 35 398 35 252 q 115 582 35 508 q 344 656 196 656 l 419 656 q 429 659 426 656 q 433 669 433 663 l 433 771 l 0 771 l -36 886 l -24 902 l 724 902 z "},"ठ":{"ha":812,"x_min":-36,"x_max":848,"o":"m 812 902 l 848 787 l 837 771 l 578 771 l 578 574 q 696 445 650 521 q 743 281 743 369 q 662 90 743 166 q 454 14 581 14 q 171 127 296 14 q 45 392 45 240 q 122 580 45 505 q 334 655 199 655 l 406 655 q 416 659 412 655 q 419 669 419 662 l 419 771 l 0 771 l -36 886 l -24 902 l 812 902 m 591 357 q 540 475 591 436 q 421 515 488 514 q 261 457 326 518 q 196 309 196 396 q 249 187 196 230 q 370 144 302 144 q 525 206 458 144 q 591 357 591 269 z "},"ड":{"ha":754,"x_min":-36,"x_max":790,"o":"m 754 902 l 790 787 l 779 771 l 639 771 l 639 593 l 625 580 l 352 580 q 283 565 312 580 q 255 521 255 550 q 270 489 255 502 q 324 477 286 477 q 398 481 350 477 q 469 486 446 486 q 624 401 555 486 q 692 216 692 317 q 630 75 692 123 q 471 26 568 26 q 168 160 283 26 q 48 363 53 294 q 60 406 46 390 q 97 431 75 422 q 245 246 160 309 q 417 183 330 183 q 524 214 481 183 q 567 292 567 245 q 558 324 567 309 q 524 338 549 338 q 464 333 507 338 q 393 327 421 327 q 197 420 290 327 q 104 596 104 513 q 138 668 104 641 q 242 696 172 696 l 467 696 q 477 699 473 696 q 480 709 480 703 l 480 771 l 0 771 l -36 886 l -24 902 l 754 902 z "},"ढ":{"ha":738,"x_min":-36,"x_max":774,"o":"m 738 902 l 774 787 l 762 771 l 591 771 l 591 535 l 578 522 l 436 522 q 255 461 320 522 q 189 315 189 400 q 241 179 189 227 q 368 130 292 130 q 398 132 383 130 q 429 138 414 134 q 369 217 392 174 q 345 307 345 259 q 382 403 345 368 q 473 437 419 437 q 626 362 559 437 q 693 207 693 286 q 625 61 693 122 q 450 1 556 1 q 169 121 300 1 q 39 397 39 241 q 119 587 39 511 q 347 662 200 662 l 419 662 q 429 665 426 662 q 433 675 433 669 l 433 771 l 0 771 l -36 886 l -24 902 l 738 902 m 577 288 q 568 316 577 305 q 543 326 558 326 q 499 301 518 326 q 479 239 479 277 q 484 205 479 222 q 499 170 489 189 q 555 223 534 192 q 577 288 577 255 z "},"ण":{"ha":998,"x_min":-36,"x_max":1034,"o":"m 998 902 l 1034 787 l 1022 771 l 871 771 l 871 -26 l 856 -39 l 715 -14 l 715 771 l 589 771 l 589 401 q 530 264 589 318 q 385 211 470 211 q 180 301 272 211 q 87 512 87 391 l 87 771 l 0 771 l -36 886 l -24 902 l 998 902 m 444 771 l 237 771 l 237 427 q 264 358 237 382 q 330 334 291 334 q 411 371 378 334 q 444 475 444 408 l 444 771 z "},"त":{"ha":862,"x_min":-36,"x_max":898,"o":"m 886 771 l 735 771 l 735 -26 l 720 -39 l 572 -14 l 572 487 l 365 487 q 258 445 290 487 q 227 343 227 402 q 281 164 227 259 q 429 -7 335 70 q 410 -36 425 -26 q 377 -46 396 -46 q 184 109 296 -46 q 72 425 72 264 q 120 571 72 517 q 262 626 168 626 l 572 626 l 572 771 l 0 771 l -36 886 l -24 902 l 862 902 l 898 787 l 886 771 z "},"थ":{"ha":954,"x_min":56,"x_max":989,"o":"m 56 802 q 103 905 56 869 q 216 941 149 941 q 427 845 332 941 q 522 626 522 749 q 464 470 522 539 q 284 359 405 401 q 364 294 319 316 q 460 272 409 272 q 604 324 543 272 q 664 461 664 376 l 664 771 l 546 771 l 510 886 l 522 902 l 954 902 l 989 787 l 978 771 l 826 771 l 826 -26 l 811 -39 l 664 -14 l 664 142 q 612 127 635 132 q 565 123 589 123 q 321 208 447 123 q 106 467 195 292 l 114 484 q 311 583 248 523 q 373 722 373 643 q 355 788 373 763 q 298 814 337 814 q 237 792 262 814 q 212 736 212 771 q 236 679 212 706 q 315 632 260 651 q 290 612 307 623 q 247 601 274 601 q 122 659 189 601 q 56 802 56 717 z "},"द":{"ha":738,"x_min":-36,"x_max":774,"o":"m 578 515 l 436 515 q 255 456 320 515 q 189 311 189 397 q 237 191 189 233 q 351 149 284 149 q 406 155 377 149 q 458 172 435 161 q 434 209 442 191 q 427 247 427 227 q 453 311 427 284 q 525 338 480 338 q 627 292 586 338 q 668 190 668 245 q 656 135 668 161 q 627 90 644 109 q 697 -19 677 25 q 718 -94 718 -64 q 687 -167 718 -136 q 612 -198 657 -198 q 539 -168 569 -198 q 498 -87 509 -137 q 565 -58 543 -75 q 586 -9 586 -41 q 582 17 586 3 q 565 47 577 30 q 508 28 540 36 q 437 21 477 21 q 160 133 281 21 q 39 395 39 245 q 113 578 39 500 q 347 655 186 655 l 419 655 q 429 659 426 655 q 433 669 433 662 l 433 771 l 0 771 l -36 886 l -24 902 l 738 902 l 774 787 l 762 771 l 591 771 l 591 528 l 578 515 z "},"ध":{"ha":897,"x_min":32,"x_max":932,"o":"m 932 787 l 921 771 l 770 771 l 770 -26 l 755 -39 l 607 -14 l 607 127 q 554 114 582 118 q 499 109 527 109 q 263 193 364 109 q 163 391 163 276 q 173 458 163 425 q 203 519 184 490 q 79 638 127 570 q 32 777 32 707 q 78 893 32 846 q 203 941 123 941 q 340 888 289 941 q 392 774 392 835 q 373 719 392 734 q 332 703 353 703 q 315 779 332 751 q 266 806 297 806 q 213 780 235 806 q 192 713 192 753 q 210 645 192 679 q 269 578 228 611 q 329 607 296 595 q 398 623 361 618 l 519 503 l 512 485 q 359 417 412 467 q 307 317 307 366 q 334 259 307 281 q 410 238 361 238 q 546 288 485 238 q 607 414 607 338 l 607 771 l 489 771 l 453 886 l 465 902 l 897 902 l 932 787 z "},"न":{"ha":801,"x_min":-36,"x_max":837,"o":"m 801 902 l 837 787 l 825 771 l 674 771 l 674 -26 l 659 -39 l 511 -14 l 511 446 l 290 446 l 290 341 q 277 300 290 313 q 247 288 264 288 q 114 370 197 288 q 31 519 31 453 q 70 573 31 561 q 160 585 109 585 l 511 585 l 511 771 l 0 771 l -36 886 l -24 902 l 801 902 z "},"ऩ":{"ha":801,"x_min":-36,"x_max":837,"o":"m 801 902 l 837 787 l 825 771 l 674 771 l 674 -26 l 659 -39 l 511 -14 l 511 446 l 290 446 l 290 341 q 277 300 290 313 q 247 288 264 288 q 114 370 197 288 q 31 519 31 453 q 70 573 31 561 q 160 585 109 585 l 511 585 l 511 771 l 0 771 l -36 886 l -24 902 l 801 902 m 200 34 q 225 94 200 68 q 286 119 251 119 q 346 94 321 119 q 371 34 371 68 q 346 -26 371 -1 q 286 -52 321 -52 q 225 -26 251 -52 q 200 34 200 -1 z "},"प":{"ha":794,"x_min":-36,"x_max":830,"o":"m 794 902 l 830 787 l 819 771 l 667 771 l 667 -26 l 652 -39 l 505 -14 l 505 224 q 443 204 473 210 q 385 197 412 197 q 180 292 273 197 q 87 512 87 387 l 87 771 l 0 771 l -36 886 l -24 902 l 794 902 m 505 771 l 243 771 l 243 434 q 266 350 243 379 q 332 321 288 321 q 449 375 394 321 q 505 509 505 430 l 505 771 z "},"फ":{"ha":1058,"x_min":-36,"x_max":1094,"o":"m 464 771 l 243 771 l 243 420 q 260 354 243 376 q 311 331 277 331 q 415 381 366 331 q 464 502 464 431 l 464 771 m 1058 902 l 1094 787 l 1082 771 l 620 771 l 620 610 q 675 632 649 625 q 728 639 701 639 q 912 558 831 639 q 994 336 994 477 q 945 171 994 226 q 843 115 897 115 q 776 135 812 115 q 710 199 741 155 q 815 301 776 233 q 855 430 855 369 q 838 490 855 467 q 782 512 821 512 q 673 467 726 512 q 620 351 620 422 l 620 -26 l 605 -39 l 464 -14 l 464 220 q 419 208 438 212 q 381 204 400 204 q 178 294 269 204 q 87 505 87 385 l 87 771 l 0 771 l -36 886 l -24 902 l 1058 902 z "},"ब":{"ha":834,"x_min":-36,"x_max":870,"o":"m 834 902 l 870 787 l 859 771 l 707 771 l 707 -26 l 692 -39 l 551 -14 l 551 152 q 477 129 513 136 q 411 121 441 121 q 172 219 284 121 q 60 446 60 317 q 135 612 60 548 q 322 676 210 676 q 439 656 380 676 q 551 589 498 635 l 551 771 l 0 771 l -36 886 l -24 902 l 834 902 m 551 412 l 551 429 q 508 498 551 465 q 393 531 464 531 q 364 529 378 531 q 337 524 350 528 l 511 316 q 541 360 530 336 q 551 412 551 385 m 209 380 q 249 288 209 326 q 357 250 290 250 q 391 253 374 250 q 423 260 408 256 l 244 471 q 218 429 227 452 q 209 380 209 406 z "},"भ":{"ha":985,"x_min":39,"x_max":1021,"o":"m 39 809 q 73 903 39 866 q 175 941 107 941 q 380 841 289 941 q 471 619 471 742 l 471 456 l 696 456 l 696 771 l 518 771 l 482 886 l 494 902 l 985 902 l 1021 787 l 1010 771 l 859 771 l 859 -26 l 844 -39 l 696 -14 l 696 317 l 471 317 l 471 219 q 460 178 471 191 q 432 165 449 165 q 298 241 385 165 q 212 391 212 317 q 239 441 212 428 q 310 456 267 454 l 310 725 q 298 787 310 761 q 250 814 286 814 q 204 795 220 814 q 189 747 189 777 q 210 688 189 715 q 284 632 231 661 q 260 615 275 623 q 224 608 245 608 q 103 664 167 608 q 39 809 39 721 z "},"म":{"ha":845,"x_min":-36,"x_max":881,"o":"m 845 902 l 881 787 l 869 771 l 718 771 l 718 -26 l 703 -39 l 555 -14 l 555 304 l 297 304 l 297 205 q 286 164 297 177 q 258 152 275 152 q 124 228 211 152 q 37 378 37 304 q 57 422 37 405 q 136 442 77 440 l 136 771 l 0 771 l -36 886 l -24 902 l 845 902 m 555 771 l 297 771 l 297 443 l 555 443 l 555 771 z "},"य":{"ha":887,"x_min":-36,"x_max":923,"o":"m 887 902 l 923 787 l 911 771 l 760 771 l 760 -26 l 745 -39 l 597 -14 l 597 155 q 547 141 570 145 q 496 136 525 136 q 266 219 385 136 q 59 494 146 302 l 67 511 q 217 585 176 543 q 259 687 259 627 q 254 731 259 710 q 243 771 250 753 l 0 771 l -36 886 l -24 902 l 887 902 m 597 771 l 346 771 q 392 673 375 722 q 408 582 408 625 q 364 466 408 515 q 235 385 320 416 q 314 310 269 335 q 406 286 359 286 q 537 336 476 286 q 597 468 597 386 l 597 771 z "},"र":{"ha":642,"x_min":-36,"x_max":677,"o":"m 642 902 l 677 787 l 666 771 l 434 771 q 481 655 463 713 q 500 542 500 597 q 441 386 500 455 q 240 290 382 317 q 387 150 306 207 q 572 45 467 92 q 537 -14 563 8 q 475 -35 512 -35 q 204 147 355 -35 q 53 439 53 329 q 76 503 53 478 q 144 528 100 528 q 203 519 170 528 q 271 489 236 510 q 335 547 316 512 q 355 633 355 583 q 348 699 355 664 q 326 771 341 734 l 0 771 l -36 886 l -24 902 l 642 902 z "},"ऱ":{"ha":642,"x_min":-36,"x_max":677,"o":"m 642 902 l 677 787 l 666 771 l 434 771 q 481 655 463 713 q 500 542 500 597 q 441 386 500 455 q 240 290 382 317 q 387 150 306 207 q 572 45 467 92 q 537 -14 563 8 q 475 -35 512 -35 q 204 147 355 -35 q 53 439 53 329 q 76 503 53 478 q 144 528 100 528 q 203 519 170 528 q 271 489 236 510 q 335 547 316 512 q 355 633 355 583 q 348 699 355 664 q 326 771 341 734 l 0 771 l -36 886 l -24 902 l 642 902 m -10 34 q 15 94 -10 68 q 76 119 41 119 q 136 94 111 119 q 161 34 161 68 q 136 -26 161 -1 q 76 -52 111 -52 q 15 -26 41 -52 q -10 34 -10 -1 z "},"ल":{"ha":980,"x_min":-33,"x_max":1016,"o":"m 980 902 l 1016 787 l 1004 771 l 853 771 l 853 -26 l 838 -39 l 690 -14 l 690 488 q 581 407 622 459 q 517 275 541 354 l 500 269 l 364 361 q 385 417 373 390 q 412 467 397 444 q 374 492 393 484 q 334 500 355 500 q 252 461 285 500 q 218 361 218 422 q 283 178 218 281 q 465 -4 347 76 q 439 -40 457 -26 q 399 -53 421 -53 q 188 110 317 -53 q 58 441 58 272 q 107 588 58 534 q 241 642 156 642 q 361 613 303 642 q 467 534 418 585 q 567 600 510 575 q 690 629 623 624 l 690 771 l 3 771 l -33 886 l -22 902 l 980 902 z "},"ळ":{"ha":1025,"x_min":-36,"x_max":1061,"o":"m 1025 902 l 1061 787 l 1049 771 l 783 771 l 783 585 q 931 462 869 547 q 994 280 994 377 q 935 125 994 187 q 785 62 877 62 q 659 95 722 62 q 533 186 596 127 q 463 102 502 134 q 360 69 425 69 q 140 170 243 69 q 38 397 38 271 q 98 554 38 490 q 254 617 159 617 q 376 588 314 617 q 505 499 437 559 q 561 571 532 545 q 627 606 589 597 l 627 771 l 0 771 l -36 886 l -24 902 l 1025 902 m 463 427 q 401 462 432 450 q 339 474 370 474 q 230 424 271 474 q 190 311 190 374 q 212 237 190 264 q 275 209 234 209 q 363 258 328 209 q 448 398 399 307 l 463 427 m 842 366 q 822 439 842 411 q 761 467 802 467 q 675 423 713 467 q 585 281 637 378 l 571 256 q 633 215 602 228 q 696 201 665 201 q 801 250 761 201 q 842 366 842 298 z "},"ऴ":{"ha":1025,"x_min":-36,"x_max":1061,"o":"m 1025 902 l 1061 787 l 1049 771 l 783 771 l 783 585 q 931 462 869 547 q 994 280 994 377 q 935 125 994 187 q 785 62 877 62 q 659 95 722 62 q 533 186 596 127 q 463 102 502 134 q 360 69 425 69 q 140 170 243 69 q 38 397 38 271 q 98 554 38 490 q 254 617 159 617 q 376 588 314 617 q 505 499 437 559 q 561 571 532 545 q 627 606 589 597 l 627 771 l 0 771 l -36 886 l -24 902 l 1025 902 m 463 427 q 401 462 432 450 q 339 474 370 474 q 230 424 271 474 q 190 311 190 374 q 212 237 190 264 q 275 209 234 209 q 363 258 328 209 q 448 398 399 307 l 463 427 m 842 366 q 822 439 842 411 q 761 467 802 467 q 675 423 713 467 q 585 281 637 378 l 571 256 q 633 215 602 228 q 696 201 665 201 q 801 250 761 201 q 842 366 842 298 m 465 -43 q 490 17 465 -8 q 551 43 515 43 q 610 17 585 43 q 635 -43 635 -8 q 610 -103 635 -77 q 551 -128 585 -128 q 490 -103 515 -128 q 465 -43 465 -77 z "},"व":{"ha":834,"x_min":-36,"x_max":870,"o":"m 834 902 l 870 787 l 859 771 l 707 771 l 707 -26 l 692 -39 l 551 -14 l 551 152 q 477 129 513 136 q 411 121 441 121 q 172 219 284 121 q 60 446 60 317 q 135 612 60 548 q 322 676 210 676 q 439 656 380 676 q 551 589 498 635 l 551 771 l 0 771 l -36 886 l -24 902 l 834 902 m 551 429 q 508 498 551 465 q 393 531 464 531 q 262 488 315 531 q 209 380 209 444 q 249 288 209 326 q 357 250 290 250 q 492 297 432 250 q 551 412 551 345 l 551 429 z "},"श":{"ha":1052,"x_min":-36,"x_max":1088,"o":"m 480 667 q 458 750 480 724 q 401 777 437 777 q 339 749 361 777 q 317 680 317 722 q 346 596 317 635 q 441 520 374 557 q 470 593 460 555 q 480 667 480 630 m 1052 902 l 1088 787 l 1076 771 l 925 771 l 925 -26 l 910 -39 l 762 -14 l 762 771 l 558 771 q 608 678 590 728 q 627 575 627 629 q 566 374 629 478 q 359 217 504 271 q 430 133 390 154 q 508 112 469 112 q 564 120 537 112 q 615 143 591 129 q 653 89 642 112 q 665 43 665 66 q 637 -20 665 3 q 559 -44 610 -44 q 405 15 483 -44 q 257 202 327 73 q 107 251 163 209 q 52 351 52 293 q 76 414 52 390 q 144 437 101 437 q 216 420 180 437 q 281 369 251 402 q 342 406 315 385 q 391 450 369 427 q 218 581 274 509 q 161 737 161 652 q 162 754 161 745 q 164 771 163 762 l 0 771 l -36 886 l -24 902 l 1052 902 z "},"ष":{"ha":794,"x_min":-36,"x_max":830,"o":"m 794 902 l 830 787 l 819 771 l 667 771 l 667 -26 l 652 -39 l 505 -14 l 505 224 q 443 204 473 210 q 385 197 412 197 q 180 292 273 197 q 87 512 87 387 l 87 771 l 0 771 l -36 886 l -24 902 l 794 902 m 505 509 l 505 771 l 278 771 l 500 467 q 503 487 502 477 q 505 509 505 498 m 243 434 q 266 350 243 379 q 332 321 288 321 q 393 335 363 321 q 448 374 424 349 l 243 656 l 243 434 z "},"स":{"ha":963,"x_min":-36,"x_max":999,"o":"m 673 771 l 391 771 q 442 653 425 708 q 459 543 459 597 q 454 487 459 513 q 440 438 450 461 q 473 433 457 435 q 504 431 489 431 q 625 468 577 431 q 673 574 673 505 l 673 771 m 963 902 l 999 787 l 987 771 l 836 771 l 836 -26 l 821 -39 l 673 -14 l 673 315 q 628 309 644 310 q 601 307 613 307 q 490 320 542 307 q 385 361 438 333 q 321 319 358 338 q 235 290 283 301 q 377 154 298 210 q 558 52 456 98 q 521 -7 550 14 q 458 -28 492 -28 q 202 151 351 -28 q 53 441 53 330 q 76 504 53 479 q 144 528 100 528 q 198 521 169 528 q 258 499 228 513 q 300 553 287 521 q 314 631 314 586 q 307 699 314 663 q 286 771 300 734 l 0 771 l -36 886 l -24 902 l 963 902 z "},"ह":{"ha":723,"x_min":-36,"x_max":759,"o":"m 723 902 l 759 787 l 747 771 l 598 771 l 598 573 l 585 559 l 311 559 q 238 535 260 559 q 216 481 216 511 q 219 459 216 470 q 227 440 222 449 q 286 459 253 452 q 357 466 319 466 q 572 387 488 466 q 656 214 656 308 q 625 124 656 156 q 547 92 593 92 q 469 116 505 92 q 419 182 432 141 q 502 231 475 204 q 528 286 528 257 q 509 327 528 310 q 446 343 491 343 q 312 296 371 343 q 253 176 253 250 q 352 30 253 89 q 629 -28 451 -28 q 604 -90 629 -67 q 512 -113 579 -113 q 231 -10 364 -113 q 97 240 97 93 q 112 324 97 286 q 156 392 127 362 q 91 468 117 425 q 64 561 64 512 q 98 647 64 612 q 201 682 132 682 l 426 682 q 436 686 433 682 q 439 696 439 689 l 439 771 l 0 771 l -36 886 l -24 902 l 723 902 z "},"ऺ":{"ha":0,"x_min":-76,"x_max":75,"o":"m -76 1086 l -60 1101 l 75 1083 l 75 844 l 59 829 l -76 847 l -76 1086 z "},"ऻ":{"ha":443,"x_min":-36,"x_max":479,"o":"m 443 902 l 479 787 l 467 771 l 302 771 l 302 -26 l 288 -39 l 140 -14 l 140 771 l 0 771 l -36 886 l -24 902 l 146 902 l 146 1086 l 163 1101 l 298 1083 l 298 902 l 443 902 z "},"़":{"ha":0,"x_min":-86,"x_max":85,"o":"m -86 -16 q -61 44 -86 19 q 0 70 -35 70 q 60 44 35 70 q 85 -16 85 19 q 60 -76 85 -50 q 0 -101 35 -101 q -61 -76 -35 -101 q -86 -16 -86 -50 z "},"ऽ":{"ha":710,"x_min":75,"x_max":656,"o":"m 583 902 l 618 787 l 607 771 l 411 771 q 282 744 320 772 q 245 679 245 717 q 375 569 245 595 q 598 412 505 542 q 642 328 627 371 q 656 245 656 284 q 594 94 656 162 q 420 26 532 26 q 174 137 273 26 q 75 351 75 248 q 87 400 75 376 q 144 431 99 425 q 226 243 162 300 q 366 186 290 186 q 478 225 437 186 q 520 318 520 263 q 386 448 520 427 q 152 612 252 469 q 116 681 129 646 q 102 751 102 716 q 157 864 102 825 q 300 902 212 902 l 583 902 z "},"ा":{"ha":443,"x_min":-36,"x_max":479,"o":"m 467 771 l 302 771 l 302 -26 l 288 -39 l 140 -14 l 140 771 l 0 771 l -36 886 l -24 902 l 443 902 l 479 787 l 467 771 z "},"ि":{"ha":443,"x_min":-36,"x_max":1092,"o":"m 43 1078 q 123 1241 43 1175 q 353 1306 203 1306 q 739 1195 540 1306 q 1092 875 937 1084 l 999 836 q 726 1066 882 982 q 415 1150 570 1150 q 250 1109 304 1150 q 196 1006 196 1067 q 205 954 196 981 q 237 902 215 927 l 443 902 l 479 787 l 467 771 l 302 771 l 302 -26 l 288 -39 l 140 -14 l 140 771 l 0 771 l -36 886 l -24 902 l 117 902 q 62 985 82 941 q 43 1078 43 1028 z "},"ी":{"ha":443,"x_min":-427,"x_max":479,"o":"m 467 771 l 302 771 l 302 -26 l 288 -39 l 140 -14 l 140 771 l 0 771 l -36 886 l -24 902 l 150 902 q 15 1108 86 1055 q -123 1162 -57 1162 q -226 1124 -186 1162 q -267 1029 -267 1087 q -238 945 -267 987 q -127 849 -209 903 l -233 849 q -372 959 -317 886 q -427 1112 -427 1032 q -366 1250 -427 1193 q -195 1306 -304 1306 q 50 1213 -71 1306 q 266 902 170 1120 l 443 902 l 479 787 l 467 771 z "},"ु":{"ha":0,"x_min":-392,"x_max":207,"o":"m -178 -71 q -138 -8 -178 -36 q -39 20 -98 20 q 133 -56 59 20 q 207 -219 207 -132 q 148 -336 207 -296 q 5 -376 90 -376 q -276 -259 -161 -376 q -392 -67 -392 -142 q -376 -17 -392 -39 q -338 11 -360 5 q -207 -176 -283 -115 q -46 -237 -131 -237 q 47 -211 13 -237 q 82 -149 82 -185 q 70 -117 82 -127 q 37 -106 58 -106 q -10 -121 14 -106 q -59 -168 -34 -135 q -149 -136 -119 -163 q -178 -71 -178 -108 z "},"ू":{"ha":0,"x_min":-227,"x_max":353,"o":"m -227 -147 q -172 -28 -227 -71 q -42 14 -117 14 q 223 -93 94 14 q 353 -262 353 -201 q 341 -292 353 -279 q 309 -311 330 -306 q 154 -170 228 -214 q 12 -126 81 -126 q -71 -147 -39 -126 q -102 -203 -102 -168 q -93 -232 -102 -220 q -62 -244 -83 -244 q -16 -230 -42 -244 q 39 -179 9 -215 q 116 -214 90 -185 q 141 -275 141 -242 q 107 -341 141 -311 q 7 -371 73 -371 q -160 -300 -93 -371 q -227 -147 -227 -230 z "},"ृ":{"ha":0,"x_min":-212,"x_max":229,"o":"m -27 65 l 81 -22 l 81 -40 q -47 -100 -17 -68 q -77 -159 -77 -133 q -65 -191 -77 -179 q -29 -203 -54 -203 q 62 -174 12 -203 q 138 -116 113 -145 q 202 -160 176 -129 q 229 -224 229 -191 q 178 -297 229 -269 q 63 -324 127 -324 q -132 -248 -53 -324 q -212 -99 -212 -172 q -168 -5 -212 -50 q -27 65 -123 40 z "},"ॄ":{"ha":0,"x_min":-235,"x_max":237,"o":"m -45 62 l 81 -22 l 81 -40 q -74 -106 -41 -71 q -107 -165 -107 -141 q -101 -183 -107 -177 q -84 -189 -95 -189 q -39 -173 -66 -189 q 38 -125 -12 -158 l 130 -212 l 125 -231 q 0 -300 30 -272 q -31 -351 -31 -328 q -21 -373 -31 -366 q 6 -380 -12 -380 q 75 -360 35 -380 q 143 -296 114 -340 q 207 -333 176 -308 q 237 -390 237 -357 q 192 -461 237 -427 q 75 -494 148 -494 q -94 -433 -23 -494 q -165 -306 -165 -372 q -161 -278 -165 -292 q -147 -250 -157 -264 q -212 -184 -188 -222 q -235 -106 -235 -146 q -193 -15 -235 -63 q -45 62 -151 33 z "},"ॅ":{"ha":0,"x_min":-264,"x_max":241,"o":"m -264 1227 q -249 1274 -264 1262 q -217 1291 -235 1286 q -146 1150 -189 1195 q -37 1105 -103 1105 q 76 1149 30 1105 q 145 1286 122 1194 q 217 1251 193 1274 q 241 1192 241 1228 q 176 1049 241 1117 q 0 981 111 981 q -197 1069 -131 981 q -264 1227 -264 1158 z "},"ॆ":{"ha":0,"x_min":-651,"x_max":73,"o":"m -651 1256 q -645 1294 -651 1278 q -625 1326 -640 1310 q -517 1235 -585 1265 q -289 1180 -450 1206 q -57 1088 -144 1158 q 73 902 31 1018 l 73 882 l -73 882 l -73 902 q -65 929 -67 916 q -62 951 -62 942 q -94 994 -62 981 q -220 1013 -125 1007 q -551 1100 -451 1027 q -651 1256 -651 1173 z "},"े":{"ha":0,"x_min":-557,"x_max":56,"o":"m -557 1216 q -527 1280 -557 1251 q -431 1310 -497 1310 q -233 1224 -339 1310 q 56 902 -126 1138 l 56 847 l -56 847 l -56 902 q -225 1083 -171 1042 q -327 1124 -280 1124 q -384 1111 -360 1124 q -422 1077 -408 1097 q -519 1135 -482 1095 q -557 1216 -557 1175 z "},"ै":{"ha":0,"x_min":-548,"x_max":81,"o":"m -362 1296 q -338 1353 -362 1327 q -262 1378 -313 1378 q -86 1273 -172 1378 q 81 902 0 1167 l 81 847 l -82 847 l -82 902 q -220 985 -154 956 q -324 1015 -286 1015 q -380 1002 -357 1015 q -415 966 -402 989 q -516 1020 -484 985 q -548 1093 -548 1054 q -515 1160 -548 1138 q -441 1181 -481 1181 q -269 1127 -374 1181 q -40 974 -163 1073 q -125 1157 -94 1112 q -186 1203 -157 1203 q -219 1195 -204 1203 q -245 1174 -234 1186 q -335 1232 -309 1199 q -362 1296 -362 1265 z "},"ॉ":{"ha":368,"x_min":-287,"x_max":404,"o":"m -287 1227 q -272 1274 -287 1262 q -240 1291 -258 1286 q -169 1150 -212 1195 q -60 1105 -126 1105 q 53 1149 7 1105 q 122 1286 99 1194 q 194 1251 170 1274 q 218 1192 218 1228 q 153 1049 218 1117 q -23 981 87 981 q -220 1069 -154 981 q -287 1227 -287 1158 m 393 771 l 228 771 l 228 -26 l 213 -39 l 65 -14 l 65 771 l -75 771 l -111 886 l -99 902 l 368 902 l 404 787 l 393 771 z "},"ॊ":{"ha":443,"x_min":-431,"x_max":479,"o":"m 443 902 l 479 787 l 467 771 l 302 771 l 302 -26 l 288 -39 l 140 -14 l 140 771 l 0 771 l -36 886 l -24 902 l 148 902 q 156 929 153 916 q 158 951 158 942 q 126 994 158 981 q 0 1013 95 1007 q -331 1100 -231 1027 q -431 1256 -431 1173 q -425 1294 -431 1278 q -405 1326 -419 1310 q -297 1235 -364 1265 q -68 1180 -229 1206 q 163 1088 76 1158 q 293 902 251 1018 l 443 902 z "},"ो":{"ha":443,"x_min":-361,"x_max":479,"o":"m 443 902 l 479 787 l 467 771 l 302 771 l 302 -26 l 288 -39 l 140 -14 l 140 771 l 0 771 l -36 886 l -24 902 l 148 902 q -26 1083 30 1042 q -131 1124 -82 1124 q -188 1111 -164 1124 q -226 1077 -212 1097 q -323 1135 -286 1095 q -361 1216 -361 1175 q -331 1280 -361 1251 q -235 1310 -301 1310 q -32 1224 -141 1310 q 264 902 78 1138 l 443 902 z "},"ौ":{"ha":443,"x_min":-345,"x_max":479,"o":"m 443 902 l 479 787 l 467 771 l 302 771 l 302 -26 l 288 -39 l 140 -14 l 140 771 l 0 771 l -36 886 l -24 902 l 121 902 q -17 986 49 956 q -121 1015 -83 1015 q -177 1002 -155 1015 q -212 966 -199 989 q -313 1020 -281 985 q -345 1093 -345 1054 q -312 1160 -345 1138 q -239 1181 -279 1181 q -62 1124 -172 1181 q 168 968 48 1067 q 79 1159 112 1114 q 17 1203 47 1203 q -16 1195 -1 1203 q -42 1174 -31 1186 q -133 1232 -106 1199 q -159 1296 -159 1265 q -135 1353 -159 1327 q -59 1378 -111 1378 q 117 1273 31 1378 q 284 902 203 1167 l 443 902 z "},"्":{"ha":0,"x_min":-171,"x_max":335,"o":"m -171 -123 q -145 -79 -171 -96 q -64 -62 -119 -62 q -4 -69 -43 -62 q 94 -109 34 -76 q 265 -239 195 -163 q 335 -344 335 -315 q 326 -366 335 -353 q 294 -386 317 -379 q 127 -253 196 -283 q -2 -222 58 -222 q -50 -224 -25 -222 q -92 -229 -75 -227 q -152 -176 -132 -201 q -171 -123 -171 -151 z "},"ॏ":{"ha":443,"x_min":-452,"x_max":479,"o":"m 443 902 l 479 787 l 467 771 l 302 771 l 302 -26 l 288 -39 l 140 -14 l 140 771 l 0 771 l -36 886 l -24 902 l 152 902 l 153 911 q 114 959 153 943 q -49 975 75 975 q -362 1044 -273 975 q -452 1187 -452 1113 q -447 1222 -452 1207 q -433 1252 -442 1238 q -330 1141 -394 1182 q -127 1099 -266 1099 q 64 1076 -11 1099 q 179 1009 139 1052 q 143 1095 176 1061 q 2 1144 111 1129 q -230 1219 -165 1168 q -294 1320 -294 1271 q -288 1355 -294 1338 q -271 1385 -282 1373 q -206 1317 -252 1339 q -35 1269 -159 1294 q 201 1152 126 1237 q 293 902 277 1066 l 443 902 z "},"ॐ":{"ha":1260,"x_min":34,"x_max":1226,"o":"m 885 1000 q 861 943 885 967 q 804 918 837 918 q 745 943 770 918 q 721 1000 721 967 q 745 1058 721 1034 q 804 1082 770 1082 q 861 1058 837 1082 q 885 1000 885 1034 m 1082 926 q 1014 790 1082 852 q 838 729 947 729 q 638 817 707 729 q 570 969 570 905 q 583 1021 570 1002 q 610 1046 597 1040 q 679 909 628 964 q 802 853 730 853 q 912 901 863 853 q 979 1041 962 948 q 1056 998 1030 1026 q 1082 926 1082 970 m 627 462 q 774 581 728 462 q 951 701 821 701 q 1135 616 1044 701 q 1226 408 1226 532 q 1167 250 1226 311 q 1025 189 1108 189 q 895 250 934 189 q 866 364 856 312 q 905 342 880 351 q 954 334 929 334 q 1050 379 1012 334 q 1088 483 1088 424 q 1073 538 1088 519 q 1030 558 1057 558 q 895 442 949 558 q 735 326 840 326 q 692 331 715 326 q 646 348 669 337 q 662 291 656 320 q 668 231 668 261 q 603 65 668 128 q 430 1 537 1 q 131 178 229 1 q 34 448 34 355 q 52 510 34 488 q 105 547 71 532 q 207 264 139 357 q 376 171 275 171 q 485 207 444 171 q 526 297 526 242 q 513 357 526 328 q 478 407 500 386 q 401 387 444 395 q 308 374 359 379 l 237 519 l 247 536 q 435 590 376 544 q 493 698 493 635 q 465 774 493 745 q 392 803 437 803 q 298 757 335 803 q 260 642 260 711 q 149 672 190 642 q 107 751 107 703 q 164 857 107 808 q 332 905 221 905 q 554 824 469 905 q 640 618 640 742 q 626 534 640 572 q 585 469 613 497 q 606 464 595 466 q 627 462 617 462 z "},"॑":{"ha":0,"x_min":-75,"x_max":76,"o":"m -75 1303 l -59 1318 l 76 1300 l 76 993 l 60 978 l -75 996 l -75 1303 z "},"॒":{"ha":0,"x_min":-441,"x_max":34,"o":"m 0 -122 l 34 -226 l -407 -226 l -441 -122 l 0 -122 z "},"॓":{"ha":0,"x_min":-164,"x_max":165,"o":"m -45 1309 l 165 1029 l 46 988 l -164 1268 l -45 1309 z "},"॔":{"ha":0,"x_min":-164,"x_max":165,"o":"m 46 1309 l 165 1268 l -45 988 l -164 1029 l 46 1309 z "},"ॕ":{"ha":0,"x_min":-264,"x_max":243,"o":"m -264 1322 q -249 1369 -264 1357 q -217 1386 -235 1381 q -146 1245 -189 1290 q -37 1200 -103 1200 q 76 1244 30 1200 q 145 1381 122 1289 q 217 1346 193 1369 q 241 1286 241 1323 q 176 1144 241 1212 q 0 1076 111 1076 q -197 1164 -131 1076 q -264 1322 -264 1253 m -228 932 l -250 1021 l -239 1036 l 220 1036 l 243 948 l 231 932 l -228 932 z "},"ॖ":{"ha":0,"x_min":-311,"x_max":311,"o":"m -311 -123 q -304 -83 -311 -98 q -287 -57 -298 -68 q -172 -164 -240 -124 q -22 -203 -104 -203 q 116 -172 48 -203 q 221 -81 183 -140 q 287 -125 263 -97 q 311 -193 311 -154 q 235 -293 311 -245 q 39 -340 158 -340 q -211 -266 -111 -340 q -311 -123 -311 -192 z "},"ॗ":{"ha":0,"x_min":-311,"x_max":317,"o":"m -311 -123 q -304 -83 -311 -98 q -287 -57 -298 -68 q -172 -164 -240 -124 q -22 -203 -104 -203 q 116 -172 48 -203 q 221 -81 183 -140 q 287 -125 263 -97 q 311 -193 311 -154 q 235 -293 311 -245 q 39 -340 158 -340 q -211 -266 -111 -340 q -311 -123 -311 -192 m 317 -433 q 255 -515 317 -482 q 85 -547 193 -547 q -199 -465 -86 -547 q -311 -320 -311 -383 q -304 -284 -311 -298 q -287 -260 -298 -270 q -151 -372 -233 -331 q 33 -414 -68 -414 q 169 -395 111 -414 q 260 -345 227 -376 q 302 -387 288 -362 q 317 -433 317 -412 z "},"क़":{"ha":1100,"x_min":-36,"x_max":1136,"o":"m 497 395 q 458 485 497 446 q 360 524 420 524 q 259 483 299 524 q 220 382 220 441 q 258 286 220 323 q 351 250 297 250 q 452 288 407 250 q 497 385 497 326 l 497 395 m 1100 902 l 1136 787 l 1124 771 l 660 771 l 660 593 q 710 620 686 612 q 763 628 734 628 q 955 540 867 628 q 1042 309 1042 452 q 995 150 1042 204 q 894 95 949 95 q 821 117 861 95 q 751 185 782 138 q 860 290 818 219 q 903 420 903 361 q 881 480 903 463 q 826 498 859 498 q 712 442 764 498 q 660 283 660 385 l 660 -26 l 645 -39 l 497 -14 l 497 134 q 449 124 472 127 q 407 121 425 121 q 177 220 286 121 q 67 449 67 318 q 131 607 67 544 q 289 669 194 669 q 391 649 338 669 q 497 578 445 628 l 497 771 l 0 771 l -36 886 l -24 902 l 1100 902 m 166 -14 q 192 46 166 21 q 252 72 217 72 q 312 46 287 72 q 337 -14 337 21 q 312 -74 337 -48 q 252 -99 287 -99 q 192 -74 217 -99 q 166 -14 166 -48 z "},"ख़":{"ha":1150,"x_min":-36,"x_max":1186,"o":"m 846 414 q 812 495 846 459 q 721 532 779 532 q 633 498 666 532 q 600 419 600 465 q 635 335 600 372 q 729 297 670 297 q 813 328 780 297 q 846 410 846 359 l 846 414 m 1150 902 l 1186 787 l 1175 771 l 1009 771 l 1009 -26 l 994 -39 l 846 -14 l 846 189 q 803 177 823 180 q 764 174 783 174 q 561 266 654 174 q 467 477 467 358 q 521 616 467 563 q 663 669 576 669 q 760 650 713 669 q 846 595 807 631 l 846 771 l 340 771 q 387 647 369 709 q 405 526 405 585 q 369 388 405 452 q 237 294 332 323 q 440 143 319 201 q 721 65 562 85 q 683 -9 712 19 q 595 -37 654 -37 q 244 134 436 -37 q 53 442 53 304 q 76 507 53 486 q 142 528 100 528 q 183 524 161 528 q 231 509 206 519 q 253 556 245 529 q 260 617 260 583 q 252 692 260 652 q 230 771 245 731 l 0 771 l -36 886 l -24 902 l 1150 902 m 98 -34 q 124 26 98 1 q 184 52 149 52 q 244 26 219 52 q 269 -34 269 1 q 244 -94 269 -68 q 184 -119 219 -119 q 124 -94 149 -119 q 98 -34 98 -68 z "},"ग़":{"ha":882,"x_min":-36,"x_max":918,"o":"m 882 902 l 918 787 l 907 771 l 755 771 l 755 -26 l 741 -39 l 593 -14 l 593 771 l 352 771 l 352 349 q 334 240 352 274 q 275 205 315 205 q 123 286 199 205 q 47 413 47 366 q 63 445 47 432 q 115 458 79 458 l 193 458 l 193 771 l 0 771 l -36 886 l -24 902 l 882 902 m 281 34 q 307 94 281 68 q 368 119 332 119 q 427 94 402 119 q 452 34 452 68 q 427 -26 452 -1 q 368 -52 402 -52 q 307 -26 332 -52 q 281 34 281 -1 z "},"ज़":{"ha":1004,"x_min":-36,"x_max":1040,"o":"m 1004 902 l 1040 787 l 1029 771 l 878 771 l 878 -26 l 863 -39 l 715 -14 l 715 495 l 530 495 q 591 399 570 448 q 612 300 612 351 q 551 155 612 210 q 404 101 491 101 q 143 281 226 101 q 61 550 61 461 q 80 615 61 595 q 143 640 98 635 q 225 357 172 444 q 355 271 279 271 q 433 298 399 271 q 467 377 467 326 q 433 459 467 424 q 335 495 400 495 l 299 610 l 311 626 l 715 626 l 715 771 l 0 771 l -36 886 l -24 902 l 1004 902 m 288 -54 q 314 6 288 -20 q 374 31 339 31 q 434 6 409 31 q 459 -54 459 -20 q 434 -114 459 -89 q 374 -140 409 -140 q 314 -114 339 -140 q 288 -54 288 -89 z "},"ड़":{"ha":754,"x_min":-36,"x_max":790,"o":"m 754 902 l 790 787 l 779 771 l 639 771 l 639 593 l 625 580 l 352 580 q 283 565 312 580 q 255 521 255 550 q 270 489 255 502 q 324 477 286 477 q 398 481 350 477 q 469 486 446 486 q 624 401 555 486 q 692 216 692 317 q 630 75 692 123 q 471 26 568 26 q 168 160 283 26 q 48 363 53 294 q 60 406 46 390 q 97 431 75 422 q 245 246 160 309 q 417 183 330 183 q 524 214 481 183 q 567 292 567 245 q 558 324 567 309 q 524 338 549 338 q 464 333 507 338 q 393 327 421 327 q 197 420 290 327 q 104 596 104 513 q 138 668 104 641 q 242 696 172 696 l 467 696 q 477 699 473 696 q 480 709 480 703 l 480 771 l 0 771 l -36 886 l -24 902 l 754 902 m 328 -129 q 354 -69 328 -94 q 414 -43 379 -43 q 474 -69 449 -43 q 499 -129 499 -94 q 474 -189 499 -163 q 414 -214 449 -214 q 354 -189 379 -214 q 328 -129 328 -163 z "},"ढ़":{"ha":738,"x_min":-36,"x_max":774,"o":"m 738 902 l 774 787 l 762 771 l 591 771 l 591 535 l 578 522 l 436 522 q 255 461 320 522 q 189 315 189 400 q 241 179 189 227 q 368 130 292 130 q 398 132 383 130 q 429 138 414 134 q 369 217 392 174 q 345 307 345 259 q 382 403 345 368 q 473 437 419 437 q 626 362 559 437 q 693 207 693 286 q 625 61 693 122 q 450 1 556 1 q 169 121 300 1 q 39 397 39 241 q 119 587 39 511 q 347 662 200 662 l 419 662 q 429 665 426 662 q 433 675 433 669 l 433 771 l 0 771 l -36 886 l -24 902 l 738 902 m 577 288 q 568 316 577 305 q 543 326 558 326 q 499 301 518 326 q 479 239 479 277 q 484 205 479 222 q 499 170 489 189 q 555 223 534 192 q 577 288 577 255 m 328 -129 q 354 -69 328 -94 q 414 -43 379 -43 q 474 -69 449 -43 q 499 -129 499 -94 q 474 -189 499 -163 q 414 -214 449 -214 q 354 -189 379 -214 q 328 -129 328 -163 z "},"फ़":{"ha":1058,"x_min":-36,"x_max":1094,"o":"m 464 771 l 250 771 l 250 420 q 266 353 250 376 q 313 331 281 331 q 415 381 366 331 q 464 502 464 431 l 464 771 m 1058 902 l 1094 787 l 1082 771 l 620 771 l 620 610 q 675 632 649 625 q 728 639 701 639 q 912 558 831 639 q 994 336 994 477 q 945 171 994 226 q 843 115 897 115 q 776 135 812 115 q 710 199 741 155 q 815 301 776 233 q 855 430 855 369 q 838 490 855 467 q 782 512 821 512 q 673 467 726 512 q 620 351 620 422 l 620 -26 l 605 -39 l 464 -14 l 464 220 q 419 208 438 212 q 381 204 400 204 q 178 294 269 204 q 87 505 87 385 l 87 771 l 0 771 l -36 886 l -24 902 l 1058 902 m 166 34 q 192 94 166 68 q 252 119 217 119 q 312 94 287 119 q 337 34 337 68 q 312 -26 337 -1 q 252 -52 287 -52 q 192 -26 217 -52 q 166 34 166 -1 z "},"य़":{"ha":887,"x_min":-36,"x_max":923,"o":"m 887 902 l 923 787 l 911 771 l 760 771 l 760 -26 l 745 -39 l 597 -14 l 597 155 q 547 141 570 145 q 496 136 525 136 q 266 219 385 136 q 59 494 146 302 l 67 511 q 217 585 176 543 q 259 687 259 627 q 254 731 259 710 q 243 771 250 753 l 0 771 l -36 886 l -24 902 l 887 902 m 597 771 l 346 771 q 392 673 375 722 q 408 582 408 625 q 364 466 408 515 q 235 385 320 416 q 314 310 269 335 q 406 286 359 286 q 537 336 476 286 q 597 468 597 386 l 597 771 m 153 34 q 178 94 153 68 q 239 119 203 119 q 298 94 273 119 q 323 34 323 68 q 298 -26 323 -1 q 239 -52 273 -52 q 178 -26 203 -52 q 153 34 153 -1 z "},"ॠ":{"ha":1202,"x_min":-36,"x_max":1238,"o":"m 987 87 q 1060 112 1016 87 q 1126 181 1103 136 q 1199 140 1159 172 q 1238 66 1238 107 q 1192 -12 1238 23 q 1079 -47 1145 -47 q 888 38 972 -47 q 804 197 804 123 q 838 279 804 241 q 938 358 871 318 l 918 397 q 817 360 873 374 q 701 344 762 347 l 701 -26 l 686 -39 l 538 -14 l 538 273 q 408 171 463 217 q 290 66 353 124 l 157 182 l 157 201 q 312 330 231 266 q 483 453 393 394 q 373 520 408 506 q 316 534 339 534 q 240 513 277 534 q 176 457 203 492 q 93 515 122 485 q 64 579 64 545 q 104 655 64 620 q 220 691 145 691 q 339 657 277 691 q 538 522 402 624 l 538 771 l 0 771 l -36 886 l -24 902 l 1202 902 l 1238 787 l 1227 771 l 701 771 l 701 491 q 773 513 740 498 q 838 548 807 527 q 815 594 821 574 q 809 629 809 615 q 831 688 809 661 q 903 715 854 715 q 1011 669 967 715 q 1056 568 1056 623 q 1039 506 1056 536 q 994 448 1023 475 q 1043 348 1019 395 q 1091 258 1068 300 q 977 176 1008 210 q 946 119 946 142 q 959 94 946 102 q 987 87 972 87 z "},"ॡ":{"ha":1026,"x_min":-36,"x_max":1067,"o":"m 1026 902 l 1062 787 l 1050 771 l 783 771 l 783 592 q 900 493 851 559 q 949 346 949 427 q 927 265 949 298 q 854 189 905 233 q 762 111 809 151 q 715 41 715 71 q 721 25 715 32 q 741 18 726 18 q 788 31 758 18 q 861 72 817 45 l 960 -22 l 955 -41 q 814 -119 846 -88 q 781 -170 781 -150 q 790 -190 781 -183 q 816 -197 799 -197 q 896 -174 847 -197 q 972 -106 945 -151 q 1036 -143 1006 -117 q 1067 -201 1067 -168 q 1021 -272 1067 -240 q 904 -303 975 -303 q 730 -242 804 -303 q 657 -111 657 -180 q 661 -86 657 -98 q 673 -62 665 -74 q 596 2 625 -35 q 567 84 567 39 q 596 165 567 127 q 690 260 625 203 q 780 346 747 313 q 812 418 812 378 q 798 457 812 446 q 758 469 783 469 q 648 423 707 469 q 541 267 588 377 l 522 261 l 385 354 q 407 406 395 381 q 431 452 418 431 q 386 473 408 467 q 342 480 363 480 q 260 443 292 480 q 229 349 229 405 q 284 186 229 276 q 441 23 339 96 q 420 -20 437 -8 q 383 -33 404 -33 q 182 126 296 -33 q 69 426 69 284 q 120 569 69 511 q 262 627 172 627 q 370 603 315 627 q 484 522 424 578 q 553 579 517 557 q 627 610 590 602 l 627 771 l 0 771 l -36 886 l -24 902 l 1026 902 z "},"ॢ":{"ha":0,"x_min":-399,"x_max":201,"o":"m 117 -345 q 50 -403 82 -380 q 18 -441 18 -425 q 24 -456 18 -451 q 42 -460 31 -460 q 90 -447 61 -460 q 134 -406 118 -433 q 183 -435 165 -417 q 201 -472 201 -453 q 173 -517 201 -496 q 98 -538 144 -538 q -20 -494 30 -538 q -69 -409 -69 -450 q -51 -355 -69 -383 q -1 -292 -33 -326 q 45 -239 22 -267 q 68 -183 68 -212 q 58 -156 68 -166 q 29 -146 48 -146 q -34 -176 3 -146 q -86 -298 -71 -205 l -103 -307 l -195 -258 q -183 -201 -191 -227 q -166 -155 -176 -176 q -188 -148 -177 -151 q -209 -146 -198 -146 q -264 -168 -242 -146 q -286 -222 -286 -190 q -242 -320 -286 -267 q -124 -414 -199 -374 q -144 -447 -129 -435 q -175 -459 -160 -459 q -309 -369 -219 -459 q -399 -175 -399 -279 q -366 -83 -399 -119 q -272 -47 -332 -47 q -204 -61 -239 -47 q -131 -104 -169 -74 q -74 -65 -104 -76 q -15 -54 -43 -54 q 111 -104 54 -54 q 168 -231 168 -155 q 153 -296 168 -269 q 117 -345 138 -322 z "},"ॣ":{"ha":0,"x_min":-397,"x_max":248,"o":"m -397 -174 q -364 -83 -397 -119 q -272 -47 -330 -47 q -202 -61 -237 -47 q -129 -104 -167 -74 q -71 -65 -102 -76 q -14 -54 -41 -54 q 112 -104 54 -54 q 170 -228 170 -155 q 152 -291 170 -267 q 111 -335 135 -316 q 50 -380 75 -364 q 24 -415 24 -396 q 28 -424 24 -420 q 39 -427 32 -427 q 73 -417 52 -427 q 121 -388 94 -406 l 166 -454 l 159 -473 q 81 -519 98 -500 q 64 -552 64 -539 q 70 -566 64 -562 q 88 -571 77 -571 q 136 -557 107 -571 q 180 -517 164 -544 q 229 -546 211 -528 q 248 -583 248 -564 q 219 -628 248 -607 q 144 -648 190 -648 q 26 -604 76 -648 q -23 -519 -23 -560 q -19 -498 -23 -509 q -3 -478 -14 -488 q -54 -436 -34 -461 q -75 -386 -75 -411 q -63 -340 -75 -365 q -7 -278 -51 -316 q 46 -228 25 -250 q 68 -179 68 -206 q 59 -155 68 -163 q 35 -146 51 -146 q -28 -176 11 -146 q -84 -298 -67 -205 l -101 -307 l -193 -258 q -181 -201 -189 -227 q -164 -155 -174 -176 q -185 -148 -175 -151 q -207 -146 -196 -146 q -262 -168 -240 -146 q -284 -222 -284 -190 q -241 -316 -284 -264 q -122 -408 -198 -368 q -142 -440 -127 -429 q -173 -452 -158 -452 q -307 -365 -217 -452 q -397 -174 -397 -277 z "},"।":{"ha":638,"x_min":340,"x_max":503,"o":"m 340 902 l 355 914 l 503 890 l 503 -54 l 488 -66 l 340 -41 l 340 902 z "},"॥":{"ha":909,"x_min":340,"x_max":774,"o":"m 611 902 l 626 914 l 774 890 l 774 -54 l 759 -66 l 611 -41 l 611 902 m 340 902 l 355 914 l 503 890 l 503 -54 l 488 -66 l 340 -41 l 340 902 z "},"०":{"ha":758,"x_min":68,"x_max":690,"o":"m 340 709 q 586 600 481 709 q 690 354 690 490 q 613 165 690 237 q 425 92 535 92 q 176 201 285 92 q 68 444 68 311 q 146 632 68 554 q 340 709 224 709 m 547 430 q 510 527 547 492 q 412 562 472 562 q 275 504 331 562 q 218 371 218 446 q 254 275 218 314 q 351 236 290 236 q 486 292 425 236 q 547 430 547 347 z "},"१":{"ha":596,"x_min":73,"x_max":552,"o":"m 273 203 q 361 144 309 180 q 439 88 414 107 q 529 -5 506 37 q 552 -82 552 -47 q 522 -162 552 -130 q 446 -195 492 -195 q 370 -165 404 -195 q 318 -86 337 -135 q 371 -50 354 -69 q 388 -10 388 -30 q 373 23 388 9 q 335 54 359 38 q 208 141 166 169 q 73 232 249 113 l 73 252 q 184 355 134 307 q 270 441 233 402 q 137 550 192 488 q 81 694 81 612 q 138 825 81 777 q 269 873 194 873 q 457 784 375 873 q 538 585 538 696 q 476 415 538 499 q 273 203 414 331 m 330 734 q 268 702 292 734 q 244 629 244 670 q 262 567 244 597 q 326 509 281 537 q 376 589 359 552 q 392 660 392 627 q 375 715 392 696 q 330 734 359 734 z "},"२":{"ha":761,"x_min":95,"x_max":720,"o":"m 558 37 q 607 47 584 37 q 656 75 629 56 q 704 22 687 52 q 720 -37 720 -7 q 693 -101 720 -74 q 612 -127 665 -127 q 464 -65 545 -127 q 310 165 383 -3 q 152 218 210 167 q 95 326 95 269 q 126 397 95 370 q 202 424 157 424 q 273 405 238 424 q 335 347 307 386 q 502 477 450 400 q 553 622 553 555 q 521 707 553 680 q 438 734 488 734 q 315 682 361 734 q 269 562 269 631 q 158 596 199 562 q 116 684 116 629 q 186 815 116 757 q 362 873 256 873 q 597 771 503 873 q 691 534 691 669 q 617 331 691 420 q 402 186 543 241 q 476 71 441 104 q 558 37 511 37 z "},"३":{"ha":695,"x_min":88,"x_max":654,"o":"m 493 -43 q 532 -37 514 -43 q 572 -18 551 -31 q 614 -67 599 -39 q 629 -121 629 -95 q 604 -178 629 -155 q 536 -201 578 -201 q 410 -154 480 -201 q 288 18 340 -107 q 147 71 201 25 q 94 176 94 117 q 122 247 94 218 q 196 275 151 275 q 276 248 239 275 q 340 168 314 220 q 462 216 422 179 q 502 299 502 254 q 487 349 502 326 q 443 389 473 372 q 355 368 404 377 q 248 354 306 359 l 182 486 l 193 502 q 419 561 355 512 q 482 666 482 609 q 459 722 482 703 q 393 742 436 742 q 283 700 326 742 q 241 595 241 658 q 130 628 172 595 q 88 714 88 662 q 146 823 88 775 q 308 871 203 871 q 540 784 448 871 q 632 589 632 696 q 609 500 632 540 q 539 431 587 460 q 623 333 591 392 q 654 218 654 275 q 589 84 654 140 q 393 21 524 28 q 437 -29 415 -15 q 493 -43 459 -43 z "},"४":{"ha":807,"x_min":68,"x_max":773,"o":"m 528 418 l 510 394 q 619 270 585 326 q 654 153 654 214 q 604 33 654 74 q 481 -7 553 -7 q 301 67 374 -7 q 228 234 228 141 q 244 305 228 266 q 321 430 261 345 q 122 603 176 546 q 68 725 68 661 q 104 828 68 787 q 195 869 140 869 q 274 839 240 869 q 330 757 308 810 q 256 720 278 747 q 233 661 233 692 q 264 596 233 623 q 376 506 296 569 l 404 544 q 500 672 493 663 q 629 847 507 682 l 773 746 q 686 628 748 711 q 528 418 625 545 m 371 177 q 387 132 371 149 q 428 114 403 114 q 480 140 458 114 q 503 210 503 165 q 490 268 503 242 q 452 319 477 294 q 387 227 404 254 q 371 177 371 200 z "},"५":{"ha":764,"x_min":64,"x_max":771,"o":"m 690 393 q 681 332 690 362 q 655 273 672 301 q 731 149 692 216 q 771 21 771 81 q 735 -67 771 -33 q 646 -101 700 -101 q 562 -72 599 -101 q 504 22 525 -42 q 597 56 572 33 q 623 120 623 79 q 617 163 623 143 q 600 202 611 183 q 497 132 555 159 q 378 104 439 104 q 165 195 266 104 q 64 424 64 286 q 115 633 64 519 q 242 857 166 747 l 393 755 q 257 517 302 626 q 212 343 212 408 q 235 269 212 296 q 303 241 258 241 q 392 268 345 241 q 486 346 438 294 q 443 408 457 377 q 428 469 428 439 q 458 545 428 514 q 537 575 489 575 q 648 518 606 575 q 690 393 690 460 z "},"६":{"ha":720,"x_min":95,"x_max":699,"o":"m 656 195 q 642 139 656 165 q 603 94 627 113 q 680 -12 660 29 q 699 -83 699 -53 q 677 -145 699 -120 q 612 -171 654 -171 q 533 -140 565 -171 q 480 -60 501 -109 q 537 -39 513 -60 q 561 14 561 -18 q 558 32 561 23 q 549 54 555 41 q 490 35 522 42 q 420 28 458 28 q 186 118 276 28 q 97 313 97 208 q 123 413 97 368 q 199 490 150 458 q 123 573 151 526 q 95 674 95 619 q 163 814 95 760 q 346 869 231 869 q 470 831 427 869 q 528 707 513 792 q 486 715 517 710 q 420 721 454 721 q 292 681 336 721 q 248 590 248 642 q 253 557 248 573 q 269 525 258 541 q 352 548 307 539 q 448 562 397 557 l 544 429 l 534 411 q 299 343 357 395 q 241 244 241 291 q 270 179 241 203 q 345 155 299 155 q 392 160 366 155 q 441 176 418 165 q 425 207 431 191 q 418 239 418 222 q 449 309 418 280 q 524 338 480 338 q 620 291 583 338 q 656 195 656 243 z "},"७":{"ha":756,"x_min":9,"x_max":729,"o":"m 259 631 q 309 758 259 707 q 436 809 359 809 q 642 685 555 809 q 729 374 729 561 q 648 133 729 216 q 446 50 566 50 q 131 241 254 50 q 9 713 9 431 q 25 817 9 779 q 111 854 42 854 q 204 361 122 507 q 402 215 286 215 q 492 239 452 215 q 557 311 532 263 q 346 427 433 336 q 259 631 259 518 m 492 663 q 434 636 457 663 q 410 564 410 609 q 458 464 410 505 q 587 409 505 422 q 590 440 589 424 q 591 474 591 457 q 565 611 591 560 q 492 663 539 663 z "},"८":{"ha":720,"x_min":75,"x_max":679,"o":"m 679 215 q 591 90 679 154 q 389 26 503 26 q 173 106 271 26 q 75 311 75 186 q 101 404 75 345 q 245 587 127 463 q 410 748 324 670 q 510 840 496 826 l 654 739 q 545 634 644 730 q 372 458 447 538 q 259 325 293 376 q 224 232 224 275 q 245 177 224 199 q 313 155 266 155 q 451 202 378 155 q 585 340 523 250 q 652 283 625 319 q 679 215 679 248 z "},"९":{"ha":641,"x_min":52,"x_max":563,"o":"m 563 565 q 508 420 563 476 q 345 359 452 363 q 415 274 374 323 q 487 182 456 224 q 535 107 517 141 q 553 36 553 73 q 515 -54 553 -20 q 432 -87 477 -87 q 356 -59 391 -87 q 294 26 321 -30 q 362 66 335 41 q 389 118 389 92 q 344 216 389 163 q 247 324 300 269 q 102 502 152 425 q 52 662 52 579 q 109 810 52 752 q 266 868 165 868 q 471 779 378 868 q 563 565 563 690 m 422 635 q 397 702 422 678 q 333 726 372 726 q 249 691 287 726 q 212 591 212 656 q 218 538 212 561 q 237 493 224 515 q 377 542 332 502 q 422 635 422 583 z "},"॰":{"ha":731,"x_min":95,"x_max":636,"o":"m 331 899 q 546 810 456 899 q 636 610 636 721 q 570 456 636 515 q 408 397 504 397 q 190 486 286 397 q 95 685 95 574 q 162 837 95 774 q 331 899 229 899 m 493 667 q 464 738 493 714 q 388 762 434 762 q 281 722 324 762 q 239 629 239 682 q 270 558 239 585 q 347 531 300 531 q 449 570 404 531 q 493 667 493 608 z "},"ॱ":{"ha":307,"x_min":68,"x_max":239,"o":"m 68 838 q 93 898 68 873 q 154 924 119 924 q 214 898 189 924 q 239 838 239 873 q 214 778 239 804 q 154 753 189 753 q 93 778 119 753 q 68 838 68 804 z "},"ॲ":{"ha":1092,"x_min":54,"x_max":1141,"o":"m 635 1227 q 650 1274 635 1262 q 682 1291 665 1286 q 753 1150 710 1195 q 863 1105 796 1105 q 975 1149 929 1105 q 1044 1286 1021 1194 q 1117 1251 1093 1274 q 1141 1192 1141 1228 q 1075 1049 1141 1117 q 899 981 1010 981 q 702 1069 768 981 q 635 1227 635 1158 m 106 751 q 163 857 106 808 q 331 905 220 905 q 554 822 469 905 q 639 614 639 739 q 629 546 639 576 q 596 484 619 515 q 623 480 610 481 q 647 479 636 479 q 758 516 713 479 q 802 622 802 553 l 802 771 l 691 771 l 655 886 l 667 902 l 1092 902 l 1128 787 l 1116 771 l 964 771 l 964 -26 l 949 -39 l 802 -14 l 802 349 q 776 345 787 346 q 753 344 766 344 q 702 349 726 344 q 646 364 678 353 q 675 293 665 331 q 686 218 686 256 q 622 63 686 125 q 450 1 557 1 q 151 179 248 1 q 54 448 54 356 q 70 503 54 482 q 132 526 87 523 q 229 258 161 346 q 395 171 296 171 q 504 207 463 171 q 545 297 545 242 q 531 361 545 329 q 489 415 516 393 q 419 395 458 404 q 334 381 380 387 l 263 526 l 273 543 q 439 593 385 549 q 492 697 492 636 q 464 774 492 745 q 391 803 435 803 q 297 757 334 803 q 260 642 260 711 q 148 672 189 642 q 106 751 106 703 z "},"ॳ":{"ha":1092,"x_min":54,"x_max":1128,"o":"m 1092 902 l 1128 787 l 1116 771 l 964 771 l 964 -26 l 949 -39 l 802 -14 l 802 349 q 776 345 787 346 q 753 344 766 344 q 702 349 726 344 q 646 364 678 353 q 675 293 665 331 q 686 218 686 256 q 622 63 686 125 q 450 1 557 1 q 151 179 248 1 q 54 448 54 356 q 70 503 54 482 q 132 526 87 523 q 229 258 161 346 q 395 171 296 171 q 504 207 463 171 q 545 297 545 242 q 531 361 545 329 q 489 415 516 393 q 419 395 458 404 q 334 381 380 387 l 263 526 l 273 543 q 439 593 385 549 q 492 697 492 636 q 464 774 492 745 q 391 803 435 803 q 297 757 334 803 q 260 642 260 711 q 148 672 189 642 q 106 751 106 703 q 163 857 106 808 q 331 905 220 905 q 554 822 469 905 q 639 614 639 739 q 629 546 639 576 q 596 484 619 515 q 623 480 610 481 q 647 479 636 479 q 758 516 713 479 q 802 622 802 553 l 802 771 l 691 771 l 655 886 l 667 902 l 808 902 l 808 1086 l 824 1101 l 959 1083 l 959 902 l 1092 902 z "},"ॴ":{"ha":1460,"x_min":54,"x_max":1496,"o":"m 1460 902 l 1496 787 l 1485 771 l 1320 771 l 1320 -26 l 1305 -39 l 1157 -14 l 1157 771 l 964 771 l 964 -26 l 949 -39 l 802 -14 l 802 349 q 776 345 787 346 q 753 344 766 344 q 702 349 726 344 q 646 364 678 353 q 675 293 665 331 q 686 218 686 256 q 622 63 686 125 q 450 1 557 1 q 151 179 248 1 q 54 448 54 356 q 70 503 54 482 q 132 526 87 523 q 229 258 161 346 q 395 171 296 171 q 504 207 463 171 q 545 297 545 242 q 531 361 545 329 q 489 415 516 393 q 419 395 458 404 q 334 381 380 387 l 263 526 l 273 543 q 439 593 385 549 q 492 697 492 636 q 464 774 492 745 q 391 803 435 803 q 297 757 334 803 q 260 642 260 711 q 148 672 189 642 q 106 751 106 703 q 163 857 106 808 q 331 905 220 905 q 554 822 469 905 q 639 614 639 739 q 629 546 639 576 q 596 484 619 515 q 623 480 610 481 q 647 479 636 479 q 758 516 713 479 q 802 622 802 553 l 802 771 l 691 771 l 655 886 l 667 902 l 1164 902 l 1164 1086 l 1180 1101 l 1315 1083 l 1315 902 l 1460 902 z "},"ॵ":{"ha":1460,"x_min":54,"x_max":1496,"o":"m 1460 902 l 1496 787 l 1485 771 l 1320 771 l 1320 -26 l 1305 -39 l 1157 -14 l 1157 771 l 964 771 l 964 -26 l 949 -39 l 802 -14 l 802 349 q 776 345 787 346 q 753 344 766 344 q 702 349 726 344 q 646 364 678 353 q 675 293 665 331 q 686 218 686 256 q 622 63 686 125 q 450 1 557 1 q 151 179 248 1 q 54 448 54 356 q 70 503 54 482 q 132 526 87 523 q 229 258 161 346 q 395 171 296 171 q 504 207 463 171 q 545 297 545 242 q 531 361 545 329 q 489 415 516 393 q 419 395 458 404 q 334 381 380 387 l 263 526 l 273 543 q 439 593 385 549 q 492 697 492 636 q 464 774 492 745 q 391 803 435 803 q 297 757 334 803 q 260 642 260 711 q 148 672 189 642 q 106 751 106 703 q 163 857 106 808 q 331 905 220 905 q 554 822 469 905 q 639 614 639 739 q 629 546 639 576 q 596 484 619 515 q 623 480 610 481 q 647 479 636 479 q 758 516 713 479 q 802 622 802 553 l 802 771 l 691 771 l 655 886 l 667 902 l 1169 902 l 1170 911 q 1131 959 1170 943 q 968 975 1092 975 q 655 1044 745 975 q 565 1187 565 1113 q 570 1222 565 1207 q 584 1252 575 1238 q 687 1141 623 1182 q 890 1099 751 1099 q 1081 1076 1006 1099 q 1196 1009 1156 1052 q 1161 1095 1194 1061 q 1019 1144 1128 1129 q 788 1219 852 1168 q 724 1320 724 1271 q 729 1355 724 1338 q 746 1385 735 1373 q 811 1317 765 1339 q 983 1269 858 1294 q 1219 1152 1143 1237 q 1310 902 1294 1066 l 1460 902 z "},"ॶ":{"ha":1092,"x_min":54,"x_max":1128,"o":"m 106 751 q 163 857 106 808 q 331 905 220 905 q 554 822 469 905 q 639 614 639 739 q 629 546 639 576 q 596 484 619 515 q 623 480 610 481 q 647 479 636 479 q 758 516 713 479 q 802 622 802 553 l 802 771 l 691 771 l 655 886 l 667 902 l 1092 902 l 1128 787 l 1116 771 l 964 771 l 964 -26 l 949 -39 l 802 -14 l 802 349 q 776 345 787 346 q 753 344 766 344 q 702 349 726 344 q 646 364 678 353 q 675 293 665 331 q 686 218 686 256 q 622 63 686 125 q 450 1 557 1 q 151 179 248 1 q 54 448 54 356 q 70 503 54 482 q 132 526 87 523 q 229 258 161 346 q 395 171 296 171 q 504 207 463 171 q 545 297 545 242 q 531 361 545 329 q 489 415 516 393 q 419 395 458 404 q 334 381 380 387 l 263 526 l 273 543 q 439 593 385 549 q 492 697 492 636 q 464 774 492 745 q 391 803 435 803 q 297 757 334 803 q 260 642 260 711 q 148 672 189 642 q 106 751 106 703 m 266 -123 q 273 -83 266 -98 q 290 -57 279 -68 q 405 -164 337 -124 q 555 -203 473 -203 q 693 -172 625 -203 q 798 -81 760 -140 q 864 -125 840 -97 q 888 -193 888 -154 q 812 -293 888 -245 q 616 -340 735 -340 q 366 -266 466 -340 q 266 -123 266 -192 z "},"ॷ":{"ha":1460,"x_min":54,"x_max":1496,"o":"m 1460 902 l 1496 787 l 1485 771 l 1320 771 l 1320 -26 l 1305 -39 l 1157 -14 l 1157 771 l 964 771 l 964 -26 l 949 -39 l 802 -14 l 802 349 q 776 345 787 346 q 753 344 766 344 q 702 349 726 344 q 646 364 678 353 q 675 293 665 331 q 686 218 686 256 q 622 63 686 125 q 450 1 557 1 q 151 179 248 1 q 54 448 54 356 q 70 503 54 482 q 132 526 87 523 q 229 258 161 346 q 395 171 296 171 q 504 207 463 171 q 545 297 545 242 q 531 361 545 329 q 489 415 516 393 q 419 395 458 404 q 334 381 380 387 l 263 526 l 273 543 q 439 593 385 549 q 492 697 492 636 q 464 774 492 745 q 391 803 435 803 q 297 757 334 803 q 260 642 260 711 q 148 672 189 642 q 106 751 106 703 q 163 857 106 808 q 331 905 220 905 q 554 822 469 905 q 639 614 639 739 q 629 546 639 576 q 596 484 619 515 q 623 480 610 481 q 647 479 636 479 q 758 516 713 479 q 802 622 802 553 l 802 771 l 691 771 l 655 886 l 667 902 l 1460 902 m 848 -193 q 771 -293 848 -245 q 576 -340 694 -340 q 325 -266 425 -340 q 225 -123 225 -192 q 232 -83 225 -98 q 250 -57 239 -68 q 364 -164 296 -124 q 514 -203 432 -203 q 652 -172 585 -203 q 758 -81 720 -140 q 824 -125 800 -97 q 848 -193 848 -154 m 569 -414 q 705 -395 647 -414 q 797 -345 764 -376 q 839 -387 824 -362 q 854 -433 854 -412 q 791 -515 854 -482 q 622 -547 729 -547 q 338 -465 450 -547 q 225 -320 225 -383 q 232 -284 225 -298 q 250 -260 239 -270 q 386 -372 304 -331 q 569 -414 468 -414 z "},"ॹ":{"ha":1004,"x_min":-36,"x_max":1040,"o":"m 1004 902 l 1040 787 l 1029 771 l 878 771 l 878 -26 l 863 -39 l 715 -14 l 715 495 l 530 495 q 591 399 570 448 q 612 300 612 351 q 551 155 612 210 q 404 101 491 101 q 143 281 226 101 q 61 550 61 461 q 80 615 61 595 q 143 640 98 635 q 225 357 172 444 q 355 271 279 271 q 433 298 399 271 q 467 377 467 326 q 433 459 467 424 q 335 495 400 495 l 299 610 l 311 626 l 715 626 l 715 771 l 0 771 l -36 886 l -24 902 l 1004 902 m 479 0 q 499 48 479 28 q 547 68 519 68 q 595 48 574 68 q 615 0 615 28 q 595 -48 615 -28 q 547 -68 574 -68 q 499 -48 519 -68 q 479 0 479 -28 m 157 0 q 177 48 157 28 q 225 68 197 68 q 273 48 253 68 q 293 0 293 28 q 273 -48 293 -28 q 225 -68 253 -68 q 177 -48 197 -68 q 157 0 157 -28 m 319 -134 q 339 -86 319 -106 q 387 -66 359 -66 q 435 -86 415 -66 q 454 -134 454 -106 q 435 -182 454 -162 q 387 -202 415 -202 q 339 -182 359 -202 q 319 -134 319 -162 z "},"ॺ":{"ha":886,"x_min":-36,"x_max":922,"o":"m 886 902 l 922 787 l 911 771 l 760 771 l 760 -26 l 745 -39 l 597 -14 l 597 155 q 547 141 570 145 q 496 136 525 136 q 266 219 385 136 q 59 494 146 302 l 67 511 q 217 585 176 543 q 259 687 259 627 q 254 731 259 710 q 243 771 250 753 l 0 771 l -36 886 l -24 902 l 886 902 m 597 513 l 597 771 l 410 771 l 597 513 m 235 385 q 314 310 269 335 q 406 286 359 286 q 502 311 455 286 q 574 382 549 337 l 406 614 q 408 597 407 606 q 408 582 408 589 q 364 466 408 515 q 235 385 320 416 z "},"ॻ":{"ha":882,"x_min":-36,"x_max":918,"o":"m 882 902 l 918 787 l 907 771 l 755 771 l 755 -63 l 94 -63 l 64 25 l 76 41 l 593 41 l 593 771 l 352 771 l 352 349 q 334 240 352 274 q 275 205 315 205 q 123 286 199 205 q 47 413 47 366 q 63 445 47 432 q 115 458 79 458 l 193 458 l 193 771 l 0 771 l -36 886 l -24 902 l 882 902 z "},"ॼ":{"ha":1004,"x_min":-36,"x_max":1040,"o":"m 1004 902 l 1040 787 l 1029 771 l 878 771 l 878 -63 l 100 -63 l 71 25 l 83 41 l 715 41 l 715 495 l 530 495 q 591 399 570 448 q 612 300 612 351 q 551 155 612 210 q 404 101 491 101 q 143 281 226 101 q 61 550 61 461 q 80 615 61 595 q 143 640 98 635 q 225 357 172 444 q 355 271 279 271 q 433 298 399 271 q 467 377 467 326 q 433 459 467 424 q 335 495 400 495 l 299 610 l 311 626 l 715 626 l 715 771 l 0 771 l -36 886 l -24 902 l 1004 902 z "},"ॽ":{"ha":654,"x_min":27,"x_max":614,"o":"m 376 -13 l 361 -25 l 214 -1 l 214 460 q 400 525 340 470 q 460 656 460 579 q 425 748 460 720 q 337 776 389 776 q 223 734 267 776 q 180 629 180 692 q 69 662 111 629 q 27 748 27 696 q 86 857 27 808 q 258 905 146 905 q 512 812 410 905 q 614 580 614 718 q 546 405 614 467 q 376 317 477 342 l 376 -13 z "},"ॾ":{"ha":754,"x_min":-36,"x_max":790,"o":"m 754 902 l 790 787 l 779 771 l 639 771 l 639 593 l 625 580 l 352 580 q 283 565 312 580 q 255 521 255 550 q 270 489 255 502 q 324 477 286 477 q 398 481 350 477 q 469 486 446 486 q 624 401 555 486 q 692 216 692 317 q 630 75 692 123 q 471 26 568 26 q 168 160 283 26 q 48 363 53 294 q 60 406 46 390 q 97 431 75 422 q 245 246 160 309 q 417 183 330 183 q 524 214 481 183 q 567 292 567 245 q 558 324 567 309 q 524 338 549 338 q 464 333 507 338 q 393 327 421 327 q 197 420 290 327 q 104 596 104 513 q 138 668 104 641 q 242 696 172 696 l 467 696 q 477 699 473 696 q 480 709 480 703 l 480 771 l 0 771 l -36 886 l -24 902 l 754 902 m 704 -27 l 733 -115 l 722 -131 l 100 -131 l 71 -43 l 83 -27 l 704 -27 z "},"ॿ":{"ha":834,"x_min":-36,"x_max":870,"o":"m 834 902 l 870 787 l 859 771 l 707 771 l 707 -63 l 94 -63 l 65 25 l 77 41 l 551 41 l 551 152 q 477 129 513 136 q 411 121 441 121 q 172 219 284 121 q 60 446 60 317 q 135 612 60 548 q 322 676 210 676 q 439 656 380 676 q 551 589 498 635 l 551 771 l 0 771 l -36 886 l -24 902 l 834 902 m 551 412 l 551 429 q 508 498 551 465 q 393 531 464 531 q 364 529 378 531 q 337 524 350 528 l 511 316 q 541 360 530 336 q 551 412 551 385 m 209 380 q 249 288 209 326 q 357 250 290 250 q 391 253 374 250 q 423 260 408 256 l 244 471 q 218 429 227 452 q 209 380 209 406 z "},"꣠":{"ha":0,"x_min":-380,"x_max":-73,"o":"m -245 1314 q -124 1261 -175 1314 q -73 1147 -73 1208 q -112 1059 -73 1095 q -206 1023 -151 1023 q -328 1075 -275 1023 q -380 1187 -380 1127 q -341 1276 -380 1238 q -245 1314 -302 1314 m -165 1181 q -178 1221 -165 1208 q -212 1234 -191 1234 q -263 1211 -241 1234 q -286 1155 -286 1187 q -273 1116 -286 1131 q -239 1101 -260 1101 q -189 1123 -212 1101 q -165 1181 -165 1146 z "},"꣡":{"ha":0,"x_min":-369,"x_max":-128,"o":"m -246 1087 q -211 1064 -230 1076 q -185 1046 -192 1052 q -145 1010 -156 1025 q -134 971 -134 994 q -150 931 -134 949 q -191 913 -165 913 q -231 926 -210 913 q -265 962 -252 939 q -237 978 -248 970 q -227 1000 -227 987 q -272 1038 -227 1011 q -369 1103 -317 1065 q -320 1146 -344 1124 q -277 1186 -296 1168 q -336 1236 -312 1207 q -361 1300 -361 1265 q -333 1363 -361 1339 q -270 1388 -305 1388 q -171 1344 -213 1388 q -128 1251 -128 1301 q -156 1178 -128 1215 q -246 1087 -184 1141 m -235 1311 q -253 1299 -245 1311 q -260 1271 -260 1288 q -256 1249 -260 1259 q -241 1230 -252 1239 q -221 1258 -228 1245 q -214 1284 -214 1272 q -221 1305 -214 1299 q -235 1311 -227 1311 z "},"꣢":{"ha":0,"x_min":-378,"x_max":-84,"o":"m -173 1018 q -152 1024 -164 1018 q -130 1040 -140 1029 q -98 1009 -109 1025 q -87 978 -87 993 q -103 946 -87 961 q -149 930 -119 930 q -214 954 -180 930 q -283 1057 -249 978 q -353 1082 -329 1055 q -378 1135 -378 1109 q -361 1171 -378 1156 q -320 1185 -345 1185 q -287 1178 -303 1185 q -258 1160 -271 1171 q -197 1209 -216 1181 q -178 1266 -178 1238 q -188 1301 -178 1291 q -216 1312 -199 1312 q -260 1289 -243 1312 q -276 1235 -278 1266 q -345 1250 -317 1231 q -372 1296 -372 1268 q -337 1358 -372 1329 q -247 1388 -302 1388 q -131 1340 -178 1388 q -84 1232 -84 1293 q -120 1139 -84 1185 q -231 1070 -155 1093 q -201 1028 -215 1039 q -173 1018 -188 1018 z "},"꣣":{"ha":0,"x_min":-385,"x_max":-103,"o":"m -182 979 q -163 983 -174 979 q -140 996 -153 987 q -120 973 -127 986 q -114 949 -114 960 q -129 922 -114 933 q -163 911 -143 911 q -213 930 -186 911 q -266 1004 -240 949 q -349 1027 -323 1004 q -376 1076 -376 1050 q -362 1110 -376 1095 q -323 1125 -349 1125 q -280 1112 -300 1125 q -249 1078 -260 1099 q -211 1098 -224 1084 q -199 1129 -199 1112 q -203 1148 -199 1140 q -214 1161 -207 1156 q -257 1152 -233 1156 q -309 1146 -281 1148 l -342 1217 q -232 1244 -260 1224 q -203 1289 -203 1264 q -212 1312 -203 1305 q -239 1320 -221 1320 q -286 1302 -267 1320 q -302 1256 -305 1285 q -362 1269 -338 1253 q -385 1309 -385 1286 q -355 1362 -385 1337 q -273 1387 -325 1387 q -159 1344 -204 1387 q -113 1253 -113 1302 q -123 1218 -113 1234 q -153 1188 -132 1202 q -116 1142 -130 1168 q -103 1093 -103 1116 q -132 1037 -103 1061 q -216 1006 -161 1012 q -200 985 -208 991 q -182 979 -193 979 z "},"꣤":{"ha":0,"x_min":-408,"x_max":-62,"o":"m -62 1324 l -181 1166 q -132 1109 -148 1135 q -117 1057 -117 1083 q -144 999 -117 1021 q -208 978 -171 978 q -297 1015 -259 978 q -336 1093 -336 1053 q -328 1125 -336 1107 q -295 1180 -320 1143 q -383 1259 -358 1230 q -408 1315 -408 1288 q -386 1365 -408 1344 q -338 1385 -365 1385 q -297 1371 -316 1385 q -263 1326 -279 1356 q -298 1305 -290 1316 q -306 1284 -306 1295 q -297 1262 -306 1272 q -259 1230 -288 1253 l -145 1383 l -62 1324 m -251 1067 q -244 1052 -251 1057 q -230 1048 -237 1048 q -212 1055 -221 1048 q -203 1080 -203 1063 q -208 1102 -203 1092 q -221 1122 -212 1113 q -244 1088 -237 1099 q -251 1067 -251 1076 z "},"꣥":{"ha":0,"x_min":-423,"x_max":-77,"o":"m -114 1164 q -118 1138 -114 1152 q -130 1110 -122 1124 q -92 1054 -107 1082 q -77 1001 -77 1026 q -96 955 -77 974 q -144 936 -115 936 q -190 951 -168 936 q -222 998 -212 966 q -177 1015 -191 1004 q -164 1040 -164 1026 q -166 1052 -164 1045 q -172 1063 -168 1058 q -217 1038 -191 1048 q -269 1028 -243 1028 q -373 1072 -323 1028 q -423 1179 -423 1116 q -397 1279 -423 1224 q -333 1387 -371 1334 l -247 1329 q -310 1218 -290 1267 q -330 1140 -330 1168 q -321 1112 -330 1121 q -298 1103 -313 1103 q -269 1111 -285 1103 q -231 1140 -252 1119 q -252 1170 -244 1155 q -259 1198 -259 1185 q -241 1236 -259 1219 q -196 1253 -224 1253 q -136 1224 -159 1253 q -114 1164 -114 1196 z "},"꣦":{"ha":0,"x_min":-361,"x_max":-68,"o":"m -81 1080 q -88 1056 -81 1067 q -105 1034 -94 1044 q -76 991 -84 1007 q -68 963 -68 975 q -82 929 -68 945 q -122 913 -97 913 q -160 928 -142 913 q -184 962 -177 943 q -159 976 -167 966 q -152 998 -152 985 q -152 1003 -152 1001 q -155 1008 -153 1006 q -179 1000 -165 1003 q -208 998 -193 998 q -317 1039 -274 998 q -361 1128 -361 1081 q -350 1172 -361 1152 q -317 1208 -338 1192 q -350 1247 -338 1226 q -361 1291 -361 1268 q -328 1358 -361 1331 q -243 1386 -294 1386 q -171 1364 -192 1386 q -139 1294 -150 1343 q -166 1302 -150 1299 q -201 1305 -182 1305 q -249 1290 -233 1305 q -265 1253 -265 1275 q -264 1243 -265 1249 q -262 1234 -263 1238 q -224 1243 -245 1239 q -180 1248 -203 1247 l -132 1177 q -240 1148 -212 1171 q -269 1102 -269 1125 q -257 1076 -269 1086 q -225 1066 -245 1067 q -211 1067 -218 1066 q -197 1069 -204 1067 q -206 1084 -203 1076 q -209 1099 -209 1093 q -193 1131 -209 1118 q -155 1144 -177 1144 q -101 1124 -121 1144 q -81 1080 -81 1103 z "},"꣧":{"ha":0,"x_min":-400,"x_max":-49,"o":"m -288 1272 q -263 1332 -288 1306 q -195 1358 -239 1358 q -91 1300 -134 1358 q -49 1156 -49 1241 q -90 1044 -49 1085 q -190 1004 -130 1004 q -342 1093 -283 1004 q -400 1309 -400 1182 q -392 1359 -400 1339 q -350 1380 -384 1380 q -344 1380 -347 1380 q -338 1379 -340 1379 q -299 1156 -338 1220 q -216 1091 -260 1091 q -180 1100 -196 1091 q -155 1124 -164 1109 q -249 1181 -211 1139 q -288 1272 -288 1223 m -170 1278 q -186 1270 -180 1278 q -193 1247 -193 1262 q -178 1206 -193 1224 q -139 1182 -164 1189 q -138 1192 -138 1187 q -138 1208 -138 1198 q -146 1259 -138 1239 q -170 1278 -155 1278 z "},"꣨":{"ha":0,"x_min":-371,"x_max":-72,"o":"m -72 1084 q -115 1022 -72 1051 q -216 993 -159 993 q -322 1032 -273 993 q -371 1128 -371 1071 q -359 1170 -371 1143 q -290 1257 -347 1198 q -217 1328 -255 1293 q -171 1371 -178 1363 l -87 1316 q -133 1271 -90 1313 q -213 1190 -176 1229 q -262 1135 -248 1155 q -276 1099 -276 1116 q -268 1076 -276 1084 q -245 1068 -260 1068 q -191 1089 -220 1068 q -134 1153 -161 1109 q -89 1125 -106 1143 q -72 1084 -72 1107 z "},"꣩":{"ha":0,"x_min":-380,"x_max":-123,"o":"m -123 1242 q -148 1178 -123 1205 q -217 1144 -172 1151 q -189 1109 -203 1127 q -161 1074 -174 1090 q -137 1037 -145 1053 q -128 1003 -128 1020 q -146 960 -128 979 q -192 942 -165 942 q -238 958 -215 942 q -273 1003 -260 975 q -242 1018 -254 1007 q -229 1041 -229 1028 q -248 1082 -229 1061 q -289 1129 -266 1104 q -357 1211 -333 1175 q -380 1285 -380 1246 q -351 1356 -380 1326 q -271 1385 -322 1385 q -169 1342 -214 1385 q -123 1242 -123 1299 m -214 1274 q -222 1299 -214 1291 q -241 1308 -230 1308 q -269 1295 -256 1308 q -282 1254 -282 1281 q -280 1233 -282 1242 q -275 1217 -278 1224 q -229 1237 -244 1222 q -214 1274 -214 1253 z "},"꣪":{"ha":0,"x_min":-502,"x_max":20,"o":"m -52 1328 l -52 968 l -152 977 l -152 1138 q -163 1137 -157 1137 q -174 1136 -170 1136 q -195 1138 -184 1136 q -215 1145 -205 1141 q -201 1110 -206 1129 q -195 1074 -195 1090 q -225 1007 -195 1032 q -304 982 -254 982 q -454 1064 -407 982 q -502 1189 -502 1147 q -492 1220 -502 1207 q -455 1232 -481 1232 q -409 1110 -440 1149 q -336 1072 -377 1072 q -296 1085 -311 1072 q -281 1121 -281 1099 q -285 1145 -281 1133 q -297 1165 -290 1157 q -331 1157 -312 1160 q -372 1152 -351 1154 l -408 1231 q -328 1256 -351 1238 q -304 1304 -304 1274 q -312 1333 -304 1323 q -336 1342 -320 1342 q -375 1323 -359 1342 q -389 1271 -391 1303 q -453 1284 -428 1267 q -478 1326 -478 1301 q -449 1377 -478 1352 q -366 1402 -419 1402 q -255 1360 -298 1402 q -212 1263 -212 1318 q -215 1237 -212 1251 q -227 1211 -218 1223 q -174 1223 -196 1211 q -152 1267 -152 1236 l -152 1328 l -206 1328 l -222 1400 l 4 1400 l 20 1328 l -52 1328 z "},"꣫":{"ha":0,"x_min":-438,"x_max":-26,"o":"m -99 1261 q -106 1227 -99 1244 q -129 1196 -114 1211 q -94 1147 -106 1173 q -81 1096 -81 1122 q -117 1016 -81 1050 q -212 982 -153 982 q -365 1071 -317 982 q -413 1202 -413 1160 q -402 1235 -413 1222 q -366 1246 -391 1247 q -310 1111 -346 1152 q -237 1070 -275 1070 q -195 1084 -214 1070 q -175 1129 -175 1099 q -178 1149 -175 1140 q -186 1164 -181 1158 q -228 1156 -205 1159 q -277 1154 -252 1153 l -311 1240 q -224 1261 -249 1246 q -199 1297 -199 1276 q -209 1320 -199 1312 q -237 1328 -219 1328 l -423 1328 l -438 1400 l -41 1400 l -26 1328 l -131 1328 q -105 1291 -112 1308 q -99 1261 -99 1274 z "},"꣬":{"ha":0,"x_min":-512,"x_max":36,"o":"m -376 1159 q -361 1120 -376 1134 q -328 1107 -347 1107 q -292 1121 -308 1107 q -275 1161 -275 1135 l -275 1166 q -289 1202 -275 1187 q -324 1217 -303 1217 q -360 1201 -345 1217 q -376 1159 -376 1185 m -175 1328 l -175 1272 q -159 1276 -168 1274 q -141 1277 -150 1277 q -46 1234 -90 1277 q -3 1126 -3 1192 q -23 1054 -3 1083 q -75 1024 -43 1024 q -114 1037 -95 1024 q -142 1073 -133 1050 q -104 1113 -121 1083 q -86 1168 -86 1143 q -96 1196 -86 1187 q -117 1205 -106 1205 q -156 1184 -136 1205 q -175 1131 -175 1164 l -175 968 l -275 977 l -275 1040 q -292 1037 -284 1038 q -307 1036 -299 1036 q -414 1084 -361 1036 q -466 1193 -466 1132 q -438 1265 -466 1234 q -364 1296 -410 1296 q -319 1289 -344 1296 q -275 1265 -295 1281 l -275 1328 l -497 1328 l -512 1400 l 21 1400 l 36 1328 l -175 1328 z "},"꣭":{"ha":0,"x_min":-466,"x_max":-43,"o":"m -60 1400 l -43 1328 l -115 1328 l -115 968 l -215 977 l -215 1175 l -295 1175 l -295 1127 q -305 1104 -295 1112 q -328 1096 -315 1096 q -398 1142 -357 1096 q -439 1221 -439 1187 q -416 1251 -439 1244 q -368 1258 -392 1258 l -215 1258 l -215 1328 l -451 1328 l -466 1400 l -60 1400 z "},"꣮":{"ha":0,"x_min":-451,"x_max":-41,"o":"m -41 1328 l -111 1328 l -111 968 l -211 977 l -211 1076 q -231 1072 -220 1073 q -252 1070 -242 1070 q -354 1116 -309 1070 q -399 1218 -399 1161 l -399 1328 l -436 1328 l -451 1400 l -56 1400 l -41 1328 m -301 1186 q -293 1153 -301 1163 q -272 1142 -286 1142 q -231 1163 -252 1142 q -211 1217 -211 1184 l -211 1328 l -301 1328 l -301 1186 z "},"꣯":{"ha":0,"x_min":-417,"x_max":-75,"o":"m -152 1231 q -178 1162 -152 1194 q -266 1115 -204 1130 q -200 1054 -235 1078 q -119 1010 -165 1030 q -138 979 -122 994 q -177 965 -154 965 q -310 1050 -239 965 q -380 1184 -380 1135 q -366 1218 -380 1204 q -326 1232 -352 1232 q -298 1228 -313 1232 q -269 1217 -283 1224 q -251 1239 -258 1225 q -245 1273 -245 1253 q -247 1300 -245 1285 q -254 1328 -250 1314 l -402 1328 l -417 1400 l -90 1400 l -75 1328 l -185 1328 q -161 1279 -170 1303 q -152 1231 -152 1255 z "},"꣰":{"ha":0,"x_min":-573,"x_max":39,"o":"m 39 1328 l -31 1328 l -31 968 l -128 977 l -128 1044 q -154 1038 -140 1040 q -180 1036 -168 1036 q -294 1082 -239 1036 q -349 1188 -349 1129 q -311 1267 -349 1235 q -217 1299 -273 1299 q -172 1294 -196 1299 q -128 1278 -149 1289 l -128 1328 l -397 1328 l -397 968 l -497 977 l -497 1328 l -558 1328 l -573 1400 l -513 1400 q -533 1435 -526 1417 q -541 1473 -541 1453 q -501 1550 -541 1518 q -388 1582 -460 1582 q -214 1535 -303 1582 q -56 1400 -124 1487 l 24 1400 l 39 1328 m -432 1400 l -144 1400 q -250 1473 -194 1448 q -359 1499 -306 1499 q -424 1482 -404 1499 q -445 1440 -445 1466 q -441 1419 -445 1430 q -432 1400 -438 1409 m -252 1160 q -238 1124 -252 1137 q -199 1110 -223 1110 q -150 1127 -172 1110 q -128 1173 -128 1144 l -128 1181 q -144 1208 -128 1196 q -185 1220 -160 1220 q -233 1203 -214 1220 q -252 1160 -252 1185 z "},"꣱":{"ha":0,"x_min":-371,"x_max":-85,"o":"m -117 1400 l -98 1328 l -205 1328 q -254 1319 -241 1329 q -267 1293 -267 1310 q -210 1248 -267 1256 q -110 1177 -153 1240 q -90 1137 -96 1156 q -85 1101 -85 1117 q -117 1029 -85 1061 q -203 996 -149 996 q -323 1048 -276 996 q -371 1146 -371 1099 q -362 1174 -371 1159 q -321 1190 -354 1189 q -286 1103 -313 1130 q -224 1076 -258 1076 q -182 1091 -198 1076 q -167 1130 -167 1106 q -224 1183 -167 1183 q -333 1259 -281 1184 q -352 1294 -346 1277 q -358 1326 -358 1310 q -329 1380 -358 1360 q -256 1400 -300 1400 l -117 1400 z "},"ꣲ":{"ha":614,"x_min":54,"x_max":559,"o":"m 205 842 q 230 900 205 876 q 288 924 254 924 q 346 900 321 924 q 370 842 370 876 q 346 785 370 809 q 288 760 321 760 q 230 785 254 760 q 205 842 205 809 m 54 817 q 69 864 54 852 q 101 882 83 876 q 172 740 129 785 q 281 695 215 695 q 394 740 348 695 q 463 876 440 785 q 535 842 511 865 q 559 782 559 819 q 494 639 559 707 q 318 571 429 571 q 121 660 187 571 q 54 817 54 749 z "},"ꣳ":{"ha":614,"x_min":54,"x_max":609,"o":"m 205 842 q 230 900 205 876 q 288 924 254 924 q 346 900 321 924 q 370 842 370 876 q 346 785 370 809 q 288 760 321 760 q 230 785 254 760 q 205 842 205 809 m 54 817 q 69 864 54 852 q 101 882 83 876 q 172 740 129 785 q 281 695 215 695 q 394 740 348 695 q 463 876 440 785 q 535 842 511 865 q 559 782 559 819 q 494 639 559 707 q 318 571 429 571 q 121 660 187 571 q 54 817 54 749 m 103 365 q 129 409 103 393 q 210 426 155 426 q 270 419 231 426 q 368 380 308 412 q 539 249 469 325 q 609 144 609 173 q 600 122 609 136 q 568 102 591 109 q 401 236 470 205 q 272 267 332 267 q 224 264 249 267 q 182 259 199 262 q 122 312 142 288 q 103 365 103 337 z "},"ꣴ":{"ha":614,"x_min":54,"x_max":609,"o":"m 205 842 q 230 900 205 876 q 288 924 254 924 q 346 900 321 924 q 370 842 370 876 q 346 785 370 809 q 288 760 321 760 q 230 785 254 760 q 205 842 205 809 m 54 817 q 69 864 54 852 q 101 882 83 876 q 172 740 129 785 q 281 695 215 695 q 394 740 348 695 q 463 876 440 785 q 535 842 511 865 q 559 782 559 819 q 494 639 559 707 q 318 571 429 571 q 121 660 187 571 q 54 817 54 749 m 205 435 q 230 493 205 469 q 288 517 254 517 q 346 493 321 517 q 370 435 370 469 q 346 378 370 402 q 288 353 321 353 q 230 378 254 353 q 205 435 205 402 m 54 410 q 69 457 54 446 q 101 475 83 469 q 172 333 129 378 q 281 288 215 288 q 394 333 348 288 q 463 469 440 378 q 535 435 511 458 q 559 375 559 412 q 494 232 559 300 q 318 164 429 164 q 121 253 187 164 q 54 410 54 342 m 103 -15 q 129 30 103 13 q 210 46 155 46 q 270 39 231 46 q 368 0 308 33 q 539 -131 469 -55 q 609 -235 609 -207 q 600 -257 609 -244 q 568 -277 591 -271 q 401 -144 470 -175 q 272 -113 332 -113 q 224 -116 249 -113 q 182 -121 199 -118 q 122 -67 142 -92 q 103 -15 103 -43 z "},"ꣵ":{"ha":614,"x_min":54,"x_max":559,"o":"m 370 842 q 346 785 370 809 q 288 760 321 760 q 230 785 254 760 q 205 842 205 809 q 230 900 205 876 q 288 924 254 924 q 346 900 321 924 q 370 842 370 876 m 559 782 q 494 639 559 707 q 318 571 429 571 q 121 660 187 571 q 54 817 54 749 q 69 864 54 852 q 101 882 83 876 q 172 740 129 785 q 281 695 215 695 q 394 740 348 695 q 463 876 440 785 q 535 842 511 865 q 559 782 559 819 m 432 -63 q 463 -56 449 -63 q 500 -32 477 -49 q 544 -75 530 -52 q 559 -121 559 -98 q 536 -170 559 -149 q 470 -192 513 -192 q 363 -155 416 -192 q 250 14 309 -118 q 136 55 178 17 q 94 132 94 94 q 120 186 94 164 q 183 208 146 208 q 235 195 210 208 q 281 159 260 182 q 383 245 351 194 q 415 340 415 296 q 396 395 415 378 q 348 411 378 411 q 271 376 300 411 q 243 292 241 340 q 146 315 184 288 q 109 383 109 342 q 162 478 109 435 q 295 522 216 522 q 469 448 399 522 q 538 278 538 373 q 487 136 538 200 q 338 32 435 73 q 385 -42 363 -21 q 432 -63 406 -63 z "},"ꣶ":{"ha":614,"x_min":54,"x_max":559,"o":"m 370 842 q 346 785 370 809 q 288 760 321 760 q 230 785 254 760 q 205 842 205 809 q 230 900 205 876 q 288 924 254 924 q 346 900 321 924 q 370 842 370 876 m 559 782 q 494 639 559 707 q 318 571 429 571 q 121 660 187 571 q 54 817 54 749 q 69 864 54 852 q 101 882 83 876 q 172 740 129 785 q 281 695 215 695 q 394 740 348 695 q 463 876 440 785 q 535 842 511 865 q 559 782 559 819 m 458 203 q 517 133 495 174 q 538 54 538 92 q 493 -40 538 1 q 359 -89 448 -80 q 383 -115 371 -109 q 412 -121 395 -121 q 437 -117 426 -121 q 467 -100 448 -113 q 507 -141 492 -118 q 521 -183 521 -163 q 499 -227 521 -208 q 442 -245 477 -245 q 351 -217 399 -245 q 261 -92 304 -188 q 158 -51 198 -85 q 119 24 119 -16 q 142 78 119 55 q 203 101 165 101 q 266 81 237 101 q 313 27 294 62 q 382 59 360 36 q 404 111 404 82 q 396 141 404 127 q 372 165 389 155 q 308 151 343 157 q 231 142 272 145 l 180 241 l 192 259 q 348 297 304 264 q 391 368 391 329 q 378 403 391 391 q 341 414 366 414 q 274 385 300 414 q 249 312 247 356 q 152 335 190 308 q 115 401 115 362 q 159 481 115 444 q 282 518 203 518 q 454 454 386 518 q 522 314 522 389 q 507 252 522 281 q 458 203 491 224 z "},"ꣷ":{"ha":614,"x_min":54,"x_max":559,"o":"m 205 842 q 230 900 205 876 q 288 924 254 924 q 346 900 321 924 q 370 842 370 876 q 346 785 370 809 q 288 760 321 760 q 230 785 254 760 q 205 842 205 809 m 54 817 q 69 864 54 852 q 101 882 83 876 q 172 740 129 785 q 281 695 215 695 q 394 740 348 695 q 463 876 440 785 q 535 842 511 865 q 559 782 559 819 q 494 639 559 707 q 318 571 429 571 q 121 660 187 571 q 54 817 54 749 m 473 515 l 500 428 l 489 410 l 342 410 q 262 394 285 410 q 239 352 239 377 q 326 281 239 293 q 484 170 413 269 q 516 107 506 138 q 527 49 527 76 q 480 -61 527 -10 q 348 -111 433 -111 q 166 -31 239 -111 q 93 123 93 50 q 105 163 93 142 q 167 187 118 184 q 220 53 179 92 q 311 14 262 14 q 379 39 353 14 q 405 100 405 63 q 316 184 405 178 q 150 302 227 191 q 122 353 132 328 q 113 403 113 378 q 155 486 113 456 q 264 515 198 515 l 473 515 z "},"꣸":{"ha":920,"x_min":54,"x_max":866,"o":"m 641 717 q 795 630 724 717 q 866 419 866 543 q 754 138 866 269 q 484 7 643 7 q 257 93 357 7 q 157 287 157 178 q 163 333 157 311 q 182 374 170 355 q 90 457 125 405 q 54 566 54 509 q 107 676 54 636 q 233 717 160 717 q 318 690 281 717 q 385 581 355 664 q 246 554 292 581 q 200 490 200 528 q 210 459 200 473 q 239 433 219 445 q 299 464 264 452 q 372 480 333 477 l 486 361 l 480 343 q 344 291 387 329 q 301 213 301 254 q 326 158 301 182 q 401 134 351 134 q 545 183 473 134 q 667 307 617 232 q 540 443 580 377 q 500 571 500 508 q 548 684 500 651 q 641 717 596 717 m 636 505 q 651 445 636 476 q 707 380 667 414 q 732 452 723 415 q 741 524 741 490 q 733 571 741 551 q 701 591 726 591 q 655 566 673 591 q 636 505 636 541 z "},"꣹":{"ha":817,"x_min":54,"x_max":763,"o":"m 561 442 l 492 372 q 422 468 447 413 q 397 573 397 523 q 446 684 397 651 q 538 717 494 717 q 692 630 621 717 q 763 419 763 543 q 651 138 763 269 q 381 7 540 7 q 154 93 254 7 q 54 283 54 179 q 111 414 54 357 q 269 480 168 471 l 383 361 l 377 343 q 241 291 284 329 q 198 212 198 253 q 222 158 198 181 q 300 134 247 134 q 534 269 431 134 q 638 526 638 403 q 630 572 638 552 q 596 591 622 591 q 550 568 568 591 q 531 511 531 545 q 537 479 531 494 q 561 442 544 463 z "},"꣺":{"ha":696,"x_min":34,"x_max":662,"o":"m 406 899 l 290 899 l 34 1244 l 199 1278 l 347 1032 l 496 1278 l 662 1244 l 406 899 z "},"ꣻ":{"ha":747,"x_min":-36,"x_max":783,"o":"m 772 1029 l 0 1029 l -36 1144 l -24 1160 l 747 1160 l 783 1044 l 772 1029 z "}," ":{"ha":407,"x_min":0,"x_max":0,"o":""}}}
